<?xml version="1.0" encoding="utf-8"?>
<!-- Generator: Adobe Illustrator 14.0.0, SVG Export Plug-In . SVG Version: 6.00 Build 43363)  -->
<!DOCTYPE svg PUBLIC "-//W3C//DTD SVG 1.0//EN" "http://www.w3.org/TR/2001/REC-SVG-20010904/DTD/svg10.dtd">
<svg version="1.0" id="Layer_1" xmlns="http://www.w3.org/2000/svg" xmlns:xlink="http://www.w3.org/1999/xlink" x="0px" y="0px"
	 width="385px" height="579px" viewBox="0 0 385 579" enable-background="new 0 0 385 579" xml:space="preserve">
<linearGradient id="SVGID_1_" gradientUnits="userSpaceOnUse" x1="15.5166" y1="7.124" x2="373.3458" y2="578.0396">
	<stop  offset="0" style="stop-color:#54AF82;stop-opacity:0.5"/>
	<stop  offset="0.1674" style="stop-color:#5CB286;stop-opacity:0.5335"/>
	<stop  offset="0.408" style="stop-color:#71BA92;stop-opacity:0.5816"/>
	<stop  offset="0.6931" style="stop-color:#92C9A7;stop-opacity:0.6386"/>
	<stop  offset="1" style="stop-color:#C2E3C9;stop-opacity:0.7"/>
</linearGradient>
<rect fill="url(#SVGID_1_)" width="385" height="579"/>
<g>
	<path fill="#754C29" d="M33.657,131.846c0.637,0,1.255-0.067,1.849-0.202l9.062,21.631h4.286l-9.784-23.352
		c1.929-1.573,3.16-3.967,3.16-6.648c0-4.732-3.839-8.571-8.572-8.571c-4.732,0-8.571,3.839-8.571,8.571
		S28.924,131.846,33.657,131.846z"/>
	<path fill="#754C29" d="M48.779,103.383c-0.355-0.9-1.237-1.537-2.265-1.537c-1.029,0-1.91,0.637-2.266,1.537l-3.643,9.079
		c1.469,0.942,2.73,2.18,3.704,3.618l1.561-4.077c0.098-0.257,0.349-0.44,0.643-0.44c0.293,0,0.545,0.184,0.643,0.44l16.5,43.188
		H29.371l5.602-14.669l-1.843-4.396c-0.655-0.024-1.298-0.104-1.929-0.221L20.8,161.846h51.429L48.779,103.383z"/>
</g>
<path fill="#22B570" d="M150,153.846c0,4.418-3.582,8-8,8H98c-4.418,0-8-3.582-8-8v-44c0-4.418,3.582-8,8-8h44c4.418,0,8,3.582,8,8
	V153.846z"/>
<g>
	<path fill="#FFFFFF" d="M116.77,126.935c0.133-0.36,0.336-0.693,0.61-1c0.273-0.307,0.59-0.577,0.95-0.81
		c0.36-0.233,0.75-0.413,1.17-0.54c0.42-0.126,0.843-0.19,1.27-0.19c0.413,0,0.78,0.07,1.1,0.21c0.32,0.14,0.573,0.324,0.76,0.55
		v-16.02h0.38v17c0,0.147-0.007,0.29-0.02,0.43c-0.013,0.14-0.053,0.29-0.12,0.45c-0.134,0.36-0.337,0.693-0.61,1
		c-0.273,0.307-0.59,0.577-0.95,0.81c-0.36,0.233-0.753,0.414-1.18,0.54c-0.427,0.127-0.847,0.19-1.26,0.19
		c-0.427,0-0.8-0.07-1.12-0.21s-0.574-0.33-0.76-0.57c-0.187-0.24-0.303-0.517-0.35-0.83S116.637,127.295,116.77,126.935z"/>
	<path fill="#FFFFFF" d="M118.672,140.665v1.211c-0.578-0.297-1.188-0.445-1.828-0.445c-0.995,0-1.791,0.443-2.387,1.328
		c-0.597,0.886-0.895,2.07-0.895,3.555h0.031c0.521-1.057,1.375-1.586,2.563-1.586c0.979,0,1.758,0.314,2.336,0.941
		c0.578,0.628,0.867,1.468,0.867,2.52c0,1.099-0.331,1.996-0.992,2.691c-0.662,0.695-1.503,1.043-2.523,1.043
		c-1.125,0-2.008-0.448-2.648-1.344c-0.641-0.896-0.961-2.153-0.961-3.773c0-1.963,0.419-3.531,1.258-4.703
		c0.838-1.172,1.945-1.758,3.32-1.758C117.594,140.345,118.213,140.452,118.672,140.665z M115.875,145.813
		c-0.662,0-1.198,0.224-1.609,0.672c-0.412,0.448-0.617,0.977-0.617,1.586c0,0.766,0.204,1.419,0.613,1.961
		c0.409,0.542,0.952,0.813,1.629,0.813c0.646,0,1.167-0.235,1.563-0.707c0.396-0.471,0.594-1.069,0.594-1.793
		c0-0.792-0.19-1.411-0.57-1.859C117.096,146.038,116.563,145.813,115.875,145.813z"/>
	<path fill="#FFFFFF" d="M124.203,151.923c-1.109,0-1.976-0.477-2.598-1.43c-0.623-0.953-0.934-2.331-0.934-4.133
		c0-1.979,0.324-3.477,0.973-4.492s1.584-1.523,2.809-1.523c2.344,0,3.516,1.914,3.516,5.742c0,1.896-0.331,3.343-0.992,4.34
		C126.315,151.424,125.391,151.923,124.203,151.923z M124.383,141.431c-1.599,0-2.398,1.623-2.398,4.867
		c0,3.031,0.784,4.547,2.352,4.547c1.547,0,2.32-1.542,2.32-4.625C126.656,143.027,125.898,141.431,124.383,141.431z"/>
</g>
<g>
	<path fill="#006838" d="M221.778,153.845c0,4.418-3.582,8-8,8h-44.001c-4.418,0-8-3.582-8-8v-44c0-4.418,3.582-8,8-8h44.001
		c4.418,0,8,3.582,8,8V153.845z"/>
	<g>
		<path fill="#FFFFFF" d="M188.547,126.937c0.133-0.36,0.336-0.693,0.61-1c0.273-0.307,0.59-0.577,0.95-0.81
			c0.36-0.233,0.75-0.413,1.17-0.54c0.42-0.126,0.843-0.19,1.27-0.19c0.413,0,0.78,0.07,1.1,0.21c0.319,0.14,0.573,0.324,0.76,0.55
			v-16.02h0.38v17c0,0.147-0.007,0.29-0.02,0.43c-0.014,0.14-0.054,0.29-0.12,0.45c-0.134,0.36-0.337,0.693-0.61,1
			c-0.273,0.307-0.59,0.577-0.949,0.81c-0.361,0.233-0.754,0.414-1.181,0.54c-0.427,0.127-0.847,0.19-1.26,0.19
			c-0.427,0-0.8-0.07-1.12-0.21s-0.574-0.33-0.76-0.57c-0.187-0.24-0.303-0.517-0.35-0.83S188.414,127.296,188.547,126.937z"/>
		<path fill="#FFFFFF" d="M184.496,151.549v-1.234c0.625,0.354,1.286,0.531,1.984,0.531c1.016,0,1.806-0.409,2.371-1.227
			c0.565-0.817,0.848-1.979,0.848-3.484c-0.011,0.005-0.021,0.005-0.031,0c-0.479,0.964-1.313,1.445-2.5,1.445
			c-0.958,0-1.745-0.325-2.359-0.977c-0.615-0.651-0.922-1.489-0.922-2.516c0-1.094,0.337-1.991,1.012-2.691
			c0.674-0.7,1.538-1.051,2.59-1.051c1.104,0,1.965,0.437,2.582,1.309c0.617,0.873,0.926,2.142,0.926,3.809
			c0,2.068-0.401,3.662-1.203,4.781c-0.802,1.12-1.917,1.68-3.344,1.68C185.699,151.924,185.048,151.799,184.496,151.549z
			 M187.371,141.432c-0.62,0-1.137,0.233-1.551,0.699c-0.414,0.466-0.621,1.059-0.621,1.777c0,0.787,0.203,1.405,0.609,1.855
			c0.406,0.451,0.956,0.676,1.648,0.676c0.604,0,1.116-0.206,1.535-0.617c0.419-0.411,0.629-0.914,0.629-1.508
			c0-0.849-0.208-1.542-0.625-2.078C188.579,141.701,188.038,141.432,187.371,141.432z"/>
		<path fill="#FFFFFF" d="M195.98,151.924c-1.109,0-1.976-0.477-2.598-1.43c-0.623-0.953-0.934-2.331-0.934-4.133
			c0-1.979,0.324-3.477,0.973-4.492s1.584-1.523,2.809-1.523c2.344,0,3.516,1.914,3.516,5.742c0,1.896-0.331,3.343-0.992,4.34
			C198.092,151.426,197.168,151.924,195.98,151.924z M196.16,141.432c-1.6,0-2.398,1.623-2.398,4.867
			c0,3.031,0.783,4.547,2.352,4.547c1.547,0,2.32-1.542,2.32-4.625C198.434,143.029,197.676,141.432,196.16,141.432z"/>
	</g>
</g>
<g>
	<path fill="#006838" d="M293.556,153.845c0,4.418-3.582,8-8,8h-44c-4.418,0-8-3.582-8-8v-43.999c0-4.418,3.582-8,8-8h44
		c4.418,0,8,3.582,8,8V153.845z"/>
	<g>
		<path fill="#FFFFFF" d="M260.326,126.112c0.133-0.36,0.336-0.693,0.609-1c0.273-0.307,0.59-0.577,0.951-0.81
			c0.359-0.233,0.75-0.413,1.17-0.54c0.42-0.126,0.843-0.19,1.27-0.19c0.413,0,0.779,0.07,1.1,0.21c0.32,0.14,0.573,0.324,0.76,0.55
			v-16.02h0.381v17c0,0.147-0.008,0.29-0.021,0.43c-0.013,0.14-0.054,0.29-0.12,0.45c-0.133,0.36-0.336,0.693-0.609,1
			c-0.273,0.307-0.59,0.577-0.95,0.81s-0.753,0.414-1.181,0.54c-0.426,0.127-0.846,0.19-1.26,0.19c-0.427,0-0.8-0.07-1.119-0.21
			c-0.32-0.14-0.574-0.33-0.761-0.57c-0.187-0.24-0.303-0.517-0.35-0.83S260.193,126.472,260.326,126.112z"/>
		<path fill="#FFFFFF" d="M258.33,150.913h-6.336v-1.125h2.531v-8.703l-2.594,0.773v-1.219l3.875-1.18v10.328h2.523V150.913z"/>
		<path fill="#FFFFFF" d="M266.744,150.913h-6.75v-1.141l3.266-3.273c0.832-0.833,1.428-1.527,1.785-2.082
			c0.355-0.555,0.535-1.147,0.535-1.777c0-0.646-0.186-1.146-0.555-1.5c-0.371-0.354-0.896-0.531-1.578-0.531
			c-1,0-1.959,0.427-2.875,1.281v-1.344c0.875-0.682,1.893-1.023,3.055-1.023c1,0,1.785,0.271,2.359,0.813
			c0.572,0.542,0.859,1.269,0.859,2.18c0,0.719-0.199,1.421-0.594,2.105c-0.396,0.685-1.107,1.535-2.133,2.551l-2.586,2.555v0.031
			h5.211V150.913z"/>
		<path fill="#FFFFFF" d="M272.072,151.1c-1.109,0-1.977-0.477-2.598-1.43c-0.623-0.953-0.934-2.331-0.934-4.133
			c0-1.979,0.324-3.477,0.973-4.492s1.584-1.523,2.809-1.523c2.344,0,3.516,1.914,3.516,5.742c0,1.896-0.332,3.343-0.992,4.34
			C274.184,150.602,273.26,151.1,272.072,151.1z M272.252,140.608c-1.6,0-2.398,1.623-2.398,4.867c0,3.031,0.783,4.547,2.352,4.547
			c1.547,0,2.32-1.542,2.32-4.625C274.525,142.205,273.768,140.608,272.252,140.608z"/>
	</g>
	<g>
	</g>
</g>
<g>
	<path fill="#006838" d="M365.333,153.845c0,4.418-3.582,8-8,8h-44c-4.418,0-8-3.582-8-8v-43.999c0-4.418,3.582-8,8-8h44
		c4.418,0,8,3.582,8,8V153.845z"/>
	<g>
		<path fill="#FFFFFF" d="M332.104,126.112c0.133-0.36,0.336-0.693,0.609-1c0.273-0.307,0.59-0.577,0.95-0.81
			c0.36-0.233,0.75-0.413,1.17-0.54c0.42-0.126,0.843-0.19,1.271-0.19c0.412,0,0.779,0.07,1.1,0.21c0.32,0.14,0.572,0.324,0.76,0.55
			v-16.02h0.38v17c0,0.147-0.007,0.29-0.021,0.43c-0.013,0.14-0.053,0.29-0.119,0.45c-0.134,0.36-0.337,0.693-0.61,1
			c-0.273,0.307-0.59,0.577-0.95,0.81c-0.359,0.233-0.753,0.414-1.18,0.54c-0.427,0.127-0.847,0.19-1.26,0.19
			c-0.428,0-0.801-0.07-1.12-0.21s-0.573-0.33-0.761-0.57c-0.186-0.24-0.303-0.517-0.35-0.83S331.97,126.472,332.104,126.112z"/>
		<path fill="#FFFFFF" d="M326.556,151.107c-0.406,0-0.745-0.125-1.016-0.375s-0.406-0.557-0.406-0.922
			c0-0.375,0.14-0.682,0.418-0.922c0.278-0.239,0.626-0.359,1.043-0.359c0.422,0,0.767,0.121,1.035,0.363s0.402,0.548,0.402,0.918
			c0,0.38-0.137,0.691-0.41,0.934S326.993,151.107,326.556,151.107z"/>
		<path fill="#FFFFFF" d="M335.306,151.107c-0.406,0-0.745-0.125-1.016-0.375s-0.406-0.557-0.406-0.922
			c0-0.375,0.14-0.682,0.418-0.922c0.278-0.239,0.626-0.359,1.043-0.359c0.422,0,0.767,0.121,1.035,0.363s0.402,0.548,0.402,0.918
			c0,0.38-0.137,0.691-0.41,0.934S335.743,151.107,335.306,151.107z"/>
		<path fill="#FFFFFF" d="M344.056,151.107c-0.406,0-0.745-0.125-1.016-0.375s-0.406-0.557-0.406-0.922
			c0-0.375,0.14-0.682,0.418-0.922c0.278-0.239,0.626-0.359,1.043-0.359c0.422,0,0.767,0.121,1.035,0.363s0.402,0.548,0.402,0.918
			c0,0.38-0.137,0.691-0.41,0.934S344.493,151.107,344.056,151.107z"/>
	</g>
	<g>
	</g>
</g>
</svg>
