<?xml version="1.0" encoding="utf-8"?>
<!-- Generator: Adobe Illustrator 14.0.0, SVG Export Plug-In . SVG Version: 6.00 Build 43363)  -->
<!DOCTYPE svg PUBLIC "-//W3C//DTD SVG 1.0//EN" "http://www.w3.org/TR/2001/REC-SVG-20010904/DTD/svg10.dtd">
<svg version="1.0" id="Layer_1" xmlns="http://www.w3.org/2000/svg" xmlns:xlink="http://www.w3.org/1999/xlink" x="0px" y="0px"
	 width="385px" height="579px" viewBox="0 0 385 579" enable-background="new 0 0 385 579" xml:space="preserve">
<linearGradient id="SVGID_1_" gradientUnits="userSpaceOnUse" x1="15.5171" y1="7.1235" x2="373.3463" y2="578.0391">
	<stop  offset="0" style="stop-color:#54AF82;stop-opacity:0.5"/>
	<stop  offset="0.1674" style="stop-color:#5CB286;stop-opacity:0.5335"/>
	<stop  offset="0.408" style="stop-color:#71BA92;stop-opacity:0.5816"/>
	<stop  offset="0.6931" style="stop-color:#92C9A7;stop-opacity:0.6386"/>
	<stop  offset="1" style="stop-color:#C2E3C9;stop-opacity:0.7"/>
</linearGradient>
<rect x="0" y="0" fill="url(#SVGID_1_)" width="385" height="579"/>
<g>
	<path fill="#754C29" d="M33.657,60.846c0.637,0,1.255-0.067,1.849-0.202l9.062,21.631h4.286l-9.784-23.352
		c1.929-1.573,3.16-3.967,3.16-6.648c0-4.732-3.839-8.571-8.572-8.571c-4.732,0-8.571,3.839-8.571,8.571
		S28.924,60.846,33.657,60.846z"/>
	<path fill="#754C29" d="M48.779,32.383c-0.355-0.9-1.237-1.537-2.265-1.537c-1.029,0-1.91,0.637-2.266,1.537l-3.643,9.079
		c1.469,0.942,2.73,2.18,3.704,3.618l1.561-4.077c0.098-0.257,0.349-0.44,0.643-0.44c0.293,0,0.545,0.184,0.643,0.44l16.5,43.188
		H29.371l5.602-14.669l-1.843-4.396c-0.655-0.024-1.298-0.104-1.929-0.221L20.8,90.846h51.429L48.779,32.383z"/>
</g>
<path fill="#006838" d="M150,82.846c0,4.418-3.582,8-8,8H98c-4.418,0-8-3.582-8-8v-44c0-4.418,3.582-8,8-8h44c4.418,0,8,3.582,8,8
	V82.846z"/>
<g>
	<path fill="#FFFFFF" d="M116.77,55.935c0.133-0.36,0.336-0.693,0.61-1c0.273-0.307,0.59-0.577,0.95-0.81
		c0.36-0.233,0.75-0.413,1.17-0.54c0.42-0.126,0.843-0.19,1.27-0.19c0.413,0,0.78,0.07,1.1,0.21c0.32,0.14,0.573,0.324,0.76,0.55
		v-16.02h0.38v17c0,0.147-0.007,0.29-0.02,0.43c-0.013,0.14-0.053,0.29-0.12,0.45c-0.134,0.36-0.337,0.693-0.61,1
		c-0.273,0.307-0.59,0.577-0.95,0.81c-0.36,0.233-0.753,0.414-1.18,0.54c-0.427,0.127-0.847,0.19-1.26,0.19
		c-0.427,0-0.8-0.07-1.12-0.21s-0.574-0.33-0.76-0.57c-0.187-0.24-0.303-0.517-0.35-0.83S116.637,56.295,116.77,55.935z"/>
	<path fill="#FFFFFF" d="M118.672,69.665v1.211c-0.578-0.297-1.188-0.445-1.828-0.445c-0.995,0-1.791,0.443-2.387,1.328
		c-0.597,0.886-0.895,2.07-0.895,3.555h0.031c0.521-1.057,1.375-1.586,2.563-1.586c0.979,0,1.758,0.314,2.336,0.941
		c0.578,0.628,0.867,1.468,0.867,2.52c0,1.099-0.331,1.996-0.992,2.691c-0.662,0.695-1.503,1.043-2.523,1.043
		c-1.125,0-2.008-0.448-2.648-1.344c-0.641-0.896-0.961-2.153-0.961-3.773c0-1.963,0.419-3.531,1.258-4.703
		c0.838-1.172,1.945-1.758,3.32-1.758C117.594,69.345,118.213,69.452,118.672,69.665z M115.875,74.813
		c-0.662,0-1.198,0.224-1.609,0.672c-0.412,0.448-0.617,0.977-0.617,1.586c0,0.766,0.204,1.419,0.613,1.961
		c0.409,0.542,0.952,0.813,1.629,0.813c0.646,0,1.167-0.235,1.563-0.707c0.396-0.471,0.594-1.069,0.594-1.793
		c0-0.792-0.19-1.411-0.57-1.859C117.096,75.038,116.563,74.813,115.875,74.813z"/>
	<path fill="#FFFFFF" d="M124.203,80.923c-1.109,0-1.976-0.477-2.598-1.43c-0.623-0.953-0.934-2.331-0.934-4.133
		c0-1.979,0.324-3.477,0.973-4.492s1.584-1.523,2.809-1.523c2.344,0,3.516,1.914,3.516,5.742c0,1.896-0.331,3.343-0.992,4.34
		C126.315,80.424,125.391,80.923,124.203,80.923z M124.383,70.431c-1.599,0-2.398,1.623-2.398,4.867
		c0,3.031,0.784,4.547,2.352,4.547c1.547,0,2.32-1.542,2.32-4.625C126.656,72.027,125.898,70.431,124.383,70.431z"/>
</g>
<path fill="#22B570" d="M221.778,82.845c0,4.418-3.582,8-8,8h-44.001c-4.418,0-8-3.582-8-8v-44c0-4.418,3.582-8,8-8h44.001
	c4.418,0,8,3.582,8,8V82.845z"/>
<g>
	<path fill="#FFFFFF" d="M188.547,55.936c0.133-0.36,0.336-0.693,0.61-1c0.273-0.307,0.59-0.577,0.95-0.81
		c0.36-0.233,0.75-0.413,1.17-0.54c0.42-0.126,0.843-0.19,1.27-0.19c0.413,0,0.78,0.07,1.1,0.21c0.319,0.14,0.573,0.324,0.76,0.55
		v-16.02h0.38v17c0,0.147-0.007,0.29-0.02,0.43c-0.014,0.14-0.054,0.29-0.12,0.45c-0.134,0.36-0.337,0.693-0.61,1
		c-0.273,0.307-0.59,0.577-0.949,0.81c-0.361,0.233-0.754,0.414-1.181,0.54c-0.427,0.127-0.847,0.19-1.26,0.19
		c-0.427,0-0.8-0.07-1.12-0.21s-0.574-0.33-0.76-0.57c-0.187-0.24-0.303-0.517-0.35-0.83S188.414,56.296,188.547,55.936z"/>
	<path fill="#FFFFFF" d="M184.496,80.549v-1.234c0.625,0.354,1.286,0.531,1.984,0.531c1.016,0,1.806-0.409,2.371-1.227
		c0.565-0.817,0.848-1.979,0.848-3.484c-0.011,0.005-0.021,0.005-0.031,0c-0.479,0.964-1.313,1.445-2.5,1.445
		c-0.958,0-1.745-0.325-2.359-0.977c-0.615-0.651-0.922-1.489-0.922-2.516c0-1.094,0.337-1.991,1.012-2.691
		c0.674-0.7,1.538-1.051,2.59-1.051c1.104,0,1.965,0.437,2.582,1.309c0.617,0.873,0.926,2.142,0.926,3.809
		c0,2.068-0.401,3.662-1.203,4.781c-0.802,1.12-1.917,1.68-3.344,1.68C185.699,80.924,185.048,80.799,184.496,80.549z
		 M187.371,70.432c-0.62,0-1.137,0.233-1.551,0.699c-0.414,0.466-0.621,1.059-0.621,1.777c0,0.787,0.203,1.405,0.609,1.855
		c0.406,0.451,0.956,0.676,1.648,0.676c0.604,0,1.116-0.206,1.535-0.617c0.419-0.411,0.629-0.914,0.629-1.508
		c0-0.849-0.208-1.542-0.625-2.078C188.579,70.7,188.038,70.432,187.371,70.432z"/>
	<path fill="#FFFFFF" d="M195.98,80.924c-1.109,0-1.976-0.477-2.598-1.43c-0.623-0.953-0.934-2.331-0.934-4.133
		c0-1.979,0.324-3.477,0.973-4.492s1.584-1.523,2.809-1.523c2.344,0,3.516,1.914,3.516,5.742c0,1.896-0.331,3.343-0.992,4.34
		C198.092,80.425,197.168,80.924,195.98,80.924z M196.16,70.432c-1.6,0-2.398,1.623-2.398,4.867c0,3.031,0.783,4.547,2.352,4.547
		c1.547,0,2.32-1.542,2.32-4.625C198.434,72.028,197.676,70.432,196.16,70.432z"/>
</g>
<g>
	<path fill="#006838" d="M293.556,82.845c0,4.418-3.582,8-8,8h-44c-4.418,0-8-3.582-8-8V38.846c0-4.418,3.582-8,8-8h44
		c4.418,0,8,3.582,8,8V82.845z"/>
	<g>
		<path fill="#FFFFFF" d="M260.326,55.112c0.133-0.36,0.336-0.693,0.609-1c0.273-0.307,0.59-0.577,0.951-0.81
			c0.359-0.233,0.75-0.413,1.17-0.54c0.42-0.126,0.843-0.19,1.27-0.19c0.413,0,0.779,0.07,1.1,0.21c0.32,0.14,0.573,0.324,0.76,0.55
			v-16.02h0.381v17c0,0.147-0.008,0.29-0.021,0.43c-0.013,0.14-0.054,0.29-0.12,0.45c-0.133,0.36-0.336,0.693-0.609,1
			c-0.273,0.307-0.59,0.577-0.95,0.81s-0.753,0.414-1.181,0.54c-0.426,0.127-0.846,0.19-1.26,0.19c-0.427,0-0.8-0.07-1.119-0.21
			c-0.32-0.14-0.574-0.33-0.761-0.57c-0.187-0.24-0.303-0.517-0.35-0.83S260.193,55.472,260.326,55.112z"/>
		<path fill="#FFFFFF" d="M258.33,79.912h-6.336v-1.125h2.531v-8.703l-2.594,0.773v-1.219l3.875-1.18v10.328h2.523V79.912z"/>
		<path fill="#FFFFFF" d="M266.744,79.912h-6.75v-1.141l3.266-3.273c0.832-0.833,1.428-1.527,1.785-2.082
			c0.355-0.555,0.535-1.147,0.535-1.777c0-0.646-0.186-1.146-0.555-1.5c-0.371-0.354-0.896-0.531-1.578-0.531
			c-1,0-1.959,0.427-2.875,1.281v-1.344c0.875-0.682,1.893-1.023,3.055-1.023c1,0,1.785,0.271,2.359,0.813
			c0.572,0.542,0.859,1.269,0.859,2.18c0,0.719-0.199,1.421-0.594,2.105c-0.396,0.685-1.107,1.535-2.133,2.551l-2.586,2.555v0.031
			h5.211V79.912z"/>
		<path fill="#FFFFFF" d="M272.072,80.1c-1.109,0-1.977-0.477-2.598-1.43c-0.623-0.953-0.934-2.331-0.934-4.133
			c0-1.979,0.324-3.477,0.973-4.492s1.584-1.523,2.809-1.523c2.344,0,3.516,1.914,3.516,5.742c0,1.896-0.332,3.343-0.992,4.34
			C274.184,79.601,273.26,80.1,272.072,80.1z M272.252,69.607c-1.6,0-2.398,1.623-2.398,4.867c0,3.031,0.783,4.547,2.352,4.547
			c1.547,0,2.32-1.542,2.32-4.625C274.525,71.204,273.768,69.607,272.252,69.607z"/>
	</g>
	<g>
	</g>
</g>
<g>
	<path fill="#006838" d="M365.333,82.845c0,4.418-3.582,8-8,8h-44c-4.418,0-8-3.582-8-8V38.846c0-4.418,3.582-8,8-8h44
		c4.418,0,8,3.582,8,8V82.845z"/>
	<g>
		<path fill="#FFFFFF" d="M332.104,55.112c0.133-0.36,0.336-0.693,0.609-1c0.273-0.307,0.59-0.577,0.95-0.81
			c0.36-0.233,0.75-0.413,1.17-0.54c0.42-0.126,0.843-0.19,1.271-0.19c0.412,0,0.779,0.07,1.1,0.21c0.32,0.14,0.572,0.324,0.76,0.55
			v-16.02h0.38v17c0,0.147-0.007,0.29-0.021,0.43c-0.013,0.14-0.053,0.29-0.119,0.45c-0.134,0.36-0.337,0.693-0.61,1
			c-0.273,0.307-0.59,0.577-0.95,0.81c-0.359,0.233-0.753,0.414-1.18,0.54c-0.427,0.127-0.847,0.19-1.26,0.19
			c-0.428,0-0.801-0.07-1.12-0.21s-0.573-0.33-0.761-0.57c-0.186-0.24-0.303-0.517-0.35-0.83S331.97,55.472,332.104,55.112z"/>
		<path fill="#FFFFFF" d="M326.556,80.107c-0.406,0-0.745-0.125-1.016-0.375s-0.406-0.557-0.406-0.922
			c0-0.375,0.14-0.682,0.418-0.922c0.278-0.239,0.626-0.359,1.043-0.359c0.422,0,0.767,0.121,1.035,0.363s0.402,0.548,0.402,0.918
			c0,0.38-0.137,0.691-0.41,0.934S326.993,80.107,326.556,80.107z"/>
		<path fill="#FFFFFF" d="M335.306,80.107c-0.406,0-0.745-0.125-1.016-0.375s-0.406-0.557-0.406-0.922
			c0-0.375,0.14-0.682,0.418-0.922c0.278-0.239,0.626-0.359,1.043-0.359c0.422,0,0.767,0.121,1.035,0.363s0.402,0.548,0.402,0.918
			c0,0.38-0.137,0.691-0.41,0.934S335.743,80.107,335.306,80.107z"/>
		<path fill="#FFFFFF" d="M344.056,80.107c-0.406,0-0.745-0.125-1.016-0.375s-0.406-0.557-0.406-0.922
			c0-0.375,0.14-0.682,0.418-0.922c0.278-0.239,0.626-0.359,1.043-0.359c0.422,0,0.767,0.121,1.035,0.363s0.402,0.548,0.402,0.918
			c0,0.38-0.137,0.691-0.41,0.934S344.493,80.107,344.056,80.107z"/>
	</g>
	<g>
	</g>
</g>
<path fill="#006838" d="M80.8,273.678c0,4.418-3.582,8-8,8h-44c-4.418,0-8-3.582-8-8V229.68c0-4.418,3.582-8,8-8h44
	c4.418,0,8,3.582,8,8V273.678z"/>
<path fill="#006838" d="M365.332,273.678c0,4.418-3.582,8-8,8h-44c-4.418,0-8-3.582-8-8V229.68c0-4.418,3.582-8,8-8h44
	c4.418,0,8,3.582,8,8V273.678z"/>
<path fill="#22B570" d="M151.933,235.87c0,4.418-3.582,8-8,8h-44c-4.418,0-8-3.582-8-8v-43.999c0-4.418,3.582-8,8-8h44
	c4.418,0,8,3.582,8,8V235.87z"/>
<g>
	<g>
		<line fill="none" stroke="#FFFFFF" stroke-width="0.46" x1="96.933" y1="207.475" x2="146.933" y2="207.475"/>
		<line fill="none" stroke="#FFFFFF" stroke-width="0.46" x1="96.933" y1="213.625" x2="146.933" y2="213.625"/>
		<line fill="none" stroke="#FFFFFF" stroke-width="0.46" x1="96.933" y1="219.775" x2="146.933" y2="219.775"/>
		<line fill="none" stroke="#FFFFFF" stroke-width="0.46" x1="96.933" y1="225.925" x2="146.933" y2="225.925"/>
		<line fill="none" stroke="#FFFFFF" stroke-width="0.46" x1="96.933" y1="232.075" x2="146.933" y2="232.075"/>
	</g>
	<g enable-background="new    ">
		<path fill="#FFFFFF" d="M105.296,203.637v-4.01h0.713v3.764l2.411-0.787v-3.591h0.713v3.37l0.959-0.32v2.559l-0.959,0.319v3.642
			l0.959-0.296v2.534l-0.959,0.319v4.01h-0.713v-3.788l-2.411,0.787v3.641h-0.713v-3.395l-1.058,0.345v-2.559l1.058-0.345v-3.665
			l-1.058,0.345v-2.534L105.296,203.637z M106.01,205.949v3.666l2.411-0.788v-3.665L106.01,205.949z"/>
	</g>
</g>
<g>
	<path fill="#006838" d="M223.065,235.87c0,4.418-3.582,8-8,8h-43.999c-4.418,0-8-3.582-8-8v-43.999c0-4.418,3.582-8,8-8h43.999
		c4.418,0,8,3.582,8,8V235.87z"/>
	<g>
		<g>
			<line fill="none" stroke="#FFFFFF" stroke-width="0.46" x1="168.066" y1="207.475" x2="218.065" y2="207.475"/>
			<line fill="none" stroke="#FFFFFF" stroke-width="0.46" x1="168.066" y1="213.625" x2="218.065" y2="213.625"/>
			<line fill="none" stroke="#FFFFFF" stroke-width="0.46" x1="168.066" y1="219.775" x2="218.065" y2="219.775"/>
			<line fill="none" stroke="#FFFFFF" stroke-width="0.46" x1="168.066" y1="225.925" x2="218.065" y2="225.925"/>
			<line fill="none" stroke="#FFFFFF" stroke-width="0.46" x1="168.066" y1="232.075" x2="218.065" y2="232.075"/>
		</g>
		<g>
			<g enable-background="new    ">
				<path fill="#FFFFFF" d="M176.43,203.637v-4.01h0.713v3.764l2.411-0.787v-3.591h0.713v3.37l0.959-0.32v2.559l-0.959,0.319v3.642
					l0.959-0.296v2.534l-0.959,0.319v4.01h-0.713v-3.788l-2.411,0.787v3.641h-0.713v-3.395l-1.058,0.345v-2.559l1.058-0.345v-3.665
					l-1.058,0.345v-2.534L176.43,203.637z M177.143,205.949v3.666l2.411-0.788v-3.665L177.143,205.949z"/>
			</g>
			<g enable-background="new    ">
				<path fill="#FFFFFF" d="M183.349,212.862v-4.01h0.713v3.764l2.411-0.787v-3.591h0.713v3.37l0.959-0.32v2.559l-0.959,0.319v3.642
					l0.959-0.296v2.534l-0.959,0.319v4.01h-0.713v-3.788l-2.411,0.787v3.641h-0.713v-3.395l-1.058,0.345v-2.559l1.058-0.345v-3.665
					l-1.058,0.345v-2.534L183.349,212.862z M184.063,215.175v3.666l2.411-0.788v-3.665L184.063,215.175z"/>
			</g>
		</g>
	</g>
</g>
<g>
	<path fill="#006838" d="M294.199,235.871c0,4.418-3.582,8-8,8h-44c-4.418,0-8-3.582-8-8v-44c0-4.418,3.582-8,8-8h44
		c4.418,0,8,3.582,8,8V235.871z"/>
	<g>
		<g>
			<line fill="none" stroke="#FFFFFF" stroke-width="0.46" x1="239.199" y1="209.012" x2="289.199" y2="209.012"/>
			<line fill="none" stroke="#FFFFFF" stroke-width="0.46" x1="239.199" y1="215.163" x2="289.199" y2="215.163"/>
			<line fill="none" stroke="#FFFFFF" stroke-width="0.46" x1="239.199" y1="221.312" x2="289.199" y2="221.312"/>
			<line fill="none" stroke="#FFFFFF" stroke-width="0.46" x1="239.199" y1="227.462" x2="289.199" y2="227.462"/>
			<line fill="none" stroke="#FFFFFF" stroke-width="0.46" x1="239.199" y1="233.612" x2="289.199" y2="233.612"/>
		</g>
		<g>
			<g enable-background="new    ">
				<path fill="#FFFFFF" d="M247.562,205.174v-4.01h0.714v3.764l2.41-0.787v-3.591h0.714v3.37l0.96-0.32v2.559l-0.96,0.319v3.642
					l0.96-0.296v2.534l-0.96,0.319v4.01h-0.714v-3.788l-2.41,0.787v3.641h-0.714v-3.395l-1.058,0.345v-2.559l1.058-0.345v-3.665
					l-1.058,0.345v-2.534L247.562,205.174z M248.275,207.486v3.666l2.41-0.788v-3.665L248.275,207.486z"/>
			</g>
			<g enable-background="new    ">
				<path fill="#FFFFFF" d="M254.479,214.399v-4.01h0.714v3.764l2.41-0.787v-3.591h0.714v3.37l0.96-0.32v2.559l-0.96,0.319v3.642
					l0.96-0.296v2.534l-0.96,0.319v4.01h-0.714v-3.788l-2.41,0.787v3.641h-0.714v-3.395l-1.058,0.345v-2.559l1.058-0.345v-3.665
					l-1.058,0.345v-2.534L254.479,214.399z M255.193,216.712v3.666l2.41-0.788v-3.665L255.193,216.712z"/>
			</g>
			<g enable-background="new    ">
				<path fill="#FFFFFF" d="M261.398,202.099v-4.01h0.713v3.764l2.412-0.787v-3.591h0.713v3.37l0.959-0.32v2.559l-0.959,0.319v3.642
					l0.959-0.296v2.534l-0.959,0.319v4.01h-0.713v-3.788l-2.412,0.787v3.641h-0.713v-3.395l-1.058,0.345v-2.559l1.058-0.345v-3.665
					l-1.058,0.345v-2.534L261.398,202.099z M262.111,204.411v3.666l2.412-0.788v-3.665L262.111,204.411z"/>
			</g>
		</g>
	</g>
</g>
<g>
	<path fill="#006838" d="M151.933,307.083c0,4.418-3.582,8-8,8h-44c-4.418,0-8-3.582-8-8v-43.998c0-4.418,3.582-8,8-8h44
		c4.418,0,8,3.582,8,8V307.083z"/>
	<g>
		<g>
			<line fill="none" stroke="#FFFFFF" stroke-width="0.46" x1="96.933" y1="280.226" x2="146.933" y2="280.226"/>
			<line fill="none" stroke="#FFFFFF" stroke-width="0.46" x1="96.933" y1="286.376" x2="146.933" y2="286.376"/>
			<line fill="none" stroke="#FFFFFF" stroke-width="0.46" x1="96.933" y1="292.526" x2="146.933" y2="292.526"/>
			<line fill="none" stroke="#FFFFFF" stroke-width="0.46" x1="96.933" y1="298.677" x2="146.933" y2="298.677"/>
			<line fill="none" stroke="#FFFFFF" stroke-width="0.46" x1="96.933" y1="304.825" x2="146.933" y2="304.825"/>
		</g>
		<g enable-background="new    ">
			<path fill="#FFFFFF" d="M104.878,283.818v4.354v1.574c0.229-0.213,0.443-0.385,0.64-0.517c0.197-0.131,0.385-0.233,0.566-0.307
				c0.18-0.074,0.373-0.127,0.578-0.16c0.205-0.033,0.438-0.05,0.701-0.05c0.312,0,0.591,0.066,0.836,0.197
				c0.246,0.132,0.459,0.304,0.64,0.517c0.18,0.213,0.32,0.451,0.418,0.714c0.098,0.262,0.147,0.517,0.147,0.762
				c0.016,0.263-0.008,0.521-0.074,0.775c-0.066,0.254-0.147,0.488-0.246,0.701c-0.115,0.278-0.295,0.524-0.541,0.738
				c-0.246,0.213-0.468,0.418-0.665,0.614c-0.065,0.065-0.205,0.181-0.418,0.345c-0.213,0.164-0.455,0.345-0.726,0.541
				c-0.271,0.197-0.554,0.397-0.849,0.603c-0.295,0.205-0.566,0.394-0.812,0.566c-0.246,0.172-0.525,0.381-0.836,0.627v-14.538h0.64
				V283.818z M106.871,290.288c-0.083-0.099-0.193-0.181-0.332-0.246c-0.14-0.065-0.292-0.099-0.455-0.099
				c-0.165,0-0.329,0.049-0.492,0.147c-0.164,0.099-0.312,0.271-0.443,0.517c-0.164,0.312-0.25,0.701-0.258,1.169
				c-0.008,0.467-0.012,0.889-0.012,1.267v2.115c0.197-0.147,0.365-0.282,0.504-0.405c0.139-0.123,0.287-0.259,0.443-0.406
				c0.155-0.147,0.299-0.279,0.43-0.394c0.229-0.213,0.426-0.442,0.59-0.688s0.287-0.558,0.369-0.936
				c0.099-0.377,0.123-0.746,0.074-1.106S107.101,290.551,106.871,290.288z"/>
		</g>
	</g>
</g>
<g>
	<path fill="#006838" d="M223.066,307.083c0,4.418-3.582,8-8,8h-44c-4.418,0-8-3.582-8-8v-43.998c0-4.418,3.582-8,8-8h44
		c4.418,0,8,3.582,8,8V307.083z"/>
	<g>
		<g>
			<line fill="none" stroke="#FFFFFF" stroke-width="0.46" x1="168.066" y1="280.226" x2="218.066" y2="280.226"/>
			<line fill="none" stroke="#FFFFFF" stroke-width="0.46" x1="168.066" y1="286.376" x2="218.066" y2="286.376"/>
			<line fill="none" stroke="#FFFFFF" stroke-width="0.46" x1="168.066" y1="292.526" x2="218.066" y2="292.526"/>
			<line fill="none" stroke="#FFFFFF" stroke-width="0.46" x1="168.066" y1="298.677" x2="218.066" y2="298.677"/>
			<line fill="none" stroke="#FFFFFF" stroke-width="0.46" x1="168.066" y1="304.825" x2="218.066" y2="304.825"/>
		</g>
		<g>
			<g enable-background="new    ">
				<path fill="#FFFFFF" d="M176.011,283.819v4.354v1.574c0.229-0.213,0.443-0.385,0.64-0.517c0.197-0.131,0.385-0.233,0.566-0.307
					c0.18-0.074,0.373-0.127,0.578-0.16c0.205-0.033,0.438-0.05,0.701-0.05c0.312,0,0.591,0.066,0.836,0.197
					c0.246,0.132,0.459,0.304,0.64,0.517c0.18,0.213,0.32,0.451,0.418,0.714c0.098,0.262,0.147,0.517,0.147,0.762
					c0.016,0.263-0.008,0.521-0.074,0.775c-0.066,0.254-0.147,0.488-0.246,0.701c-0.115,0.278-0.295,0.524-0.541,0.738
					c-0.246,0.213-0.468,0.418-0.665,0.614c-0.065,0.065-0.205,0.181-0.418,0.345c-0.213,0.164-0.455,0.345-0.726,0.541
					c-0.271,0.197-0.554,0.397-0.849,0.603c-0.295,0.205-0.566,0.394-0.812,0.566c-0.246,0.172-0.525,0.381-0.836,0.627v-14.538
					h0.64V283.819z M178.004,290.289c-0.083-0.099-0.193-0.181-0.332-0.246c-0.14-0.065-0.292-0.099-0.455-0.099
					c-0.165,0-0.329,0.049-0.492,0.147c-0.164,0.099-0.312,0.271-0.443,0.517c-0.164,0.312-0.25,0.701-0.258,1.169
					c-0.008,0.467-0.012,0.889-0.012,1.267v2.115c0.197-0.147,0.365-0.282,0.504-0.405c0.139-0.123,0.287-0.259,0.443-0.406
					c0.155-0.147,0.299-0.279,0.43-0.394c0.229-0.213,0.426-0.442,0.59-0.688s0.287-0.558,0.369-0.936
					c0.099-0.377,0.123-0.746,0.074-1.106S178.233,290.552,178.004,290.289z"/>
			</g>
			<g enable-background="new    ">
				<path fill="#FFFFFF" d="M182.161,274.594v4.354v1.574c0.229-0.213,0.443-0.385,0.64-0.517c0.197-0.131,0.385-0.233,0.566-0.307
					c0.18-0.074,0.373-0.127,0.578-0.16c0.205-0.033,0.438-0.05,0.701-0.05c0.312,0,0.591,0.066,0.836,0.197
					c0.246,0.132,0.459,0.304,0.64,0.517c0.18,0.213,0.32,0.451,0.418,0.714c0.098,0.262,0.147,0.517,0.147,0.762
					c0.016,0.263-0.008,0.521-0.074,0.775c-0.066,0.254-0.147,0.488-0.246,0.701c-0.115,0.278-0.295,0.524-0.541,0.738
					c-0.246,0.213-0.468,0.418-0.665,0.614c-0.065,0.065-0.205,0.181-0.418,0.345c-0.213,0.164-0.455,0.345-0.726,0.541
					c-0.271,0.197-0.554,0.397-0.849,0.603c-0.295,0.205-0.566,0.394-0.812,0.566c-0.246,0.172-0.525,0.381-0.836,0.627V272.65h0.64
					V274.594z M184.154,281.063c-0.083-0.099-0.193-0.181-0.332-0.246c-0.14-0.065-0.292-0.099-0.455-0.099
					c-0.165,0-0.329,0.049-0.492,0.147c-0.164,0.099-0.312,0.271-0.443,0.517c-0.164,0.312-0.25,0.701-0.258,1.169
					c-0.008,0.467-0.012,0.889-0.012,1.267v2.115c0.197-0.147,0.365-0.282,0.504-0.405c0.139-0.123,0.287-0.259,0.443-0.406
					c0.155-0.147,0.299-0.279,0.43-0.394c0.229-0.213,0.426-0.442,0.59-0.688s0.287-0.558,0.369-0.936
					c0.099-0.377,0.123-0.746,0.074-1.106S184.383,281.326,184.154,281.063z"/>
			</g>
		</g>
	</g>
</g>
<g>
	<path fill="#006838" d="M294.199,306.886c0,4.418-3.582,8-8,8h-44c-4.418,0-8-3.582-8-8v-43.998c0-4.418,3.582-8,8-8h44
		c4.418,0,8,3.582,8,8V306.886z"/>
	<g>
		<g>
			<line fill="none" stroke="#FFFFFF" stroke-width="0.46" x1="239.199" y1="280.029" x2="289.199" y2="280.029"/>
			<line fill="none" stroke="#FFFFFF" stroke-width="0.46" x1="239.199" y1="286.179" x2="289.199" y2="286.179"/>
			<line fill="none" stroke="#FFFFFF" stroke-width="0.46" x1="239.199" y1="292.328" x2="289.199" y2="292.328"/>
			<line fill="none" stroke="#FFFFFF" stroke-width="0.46" x1="239.199" y1="298.479" x2="289.199" y2="298.479"/>
			<line fill="none" stroke="#FFFFFF" stroke-width="0.46" x1="239.199" y1="304.628" x2="289.199" y2="304.628"/>
		</g>
		<g>
			<g enable-background="new    ">
				<path fill="#FFFFFF" d="M247.145,283.621v4.354v1.574c0.229-0.213,0.442-0.385,0.639-0.517c0.197-0.131,0.386-0.233,0.566-0.307
					c0.18-0.074,0.373-0.127,0.578-0.16s0.438-0.05,0.701-0.05c0.311,0,0.59,0.066,0.836,0.197c0.246,0.132,0.459,0.304,0.64,0.517
					s0.319,0.451,0.419,0.714c0.098,0.262,0.146,0.517,0.146,0.762c0.017,0.263-0.008,0.521-0.073,0.775s-0.147,0.488-0.246,0.701
					c-0.114,0.278-0.296,0.524-0.541,0.738c-0.246,0.213-0.468,0.418-0.665,0.614c-0.064,0.065-0.205,0.181-0.418,0.345
					s-0.455,0.345-0.725,0.541c-0.271,0.197-0.555,0.397-0.85,0.603s-0.565,0.394-0.812,0.566c-0.246,0.172-0.524,0.381-0.837,0.627
					v-14.538h0.641V283.621z M249.137,290.091c-0.082-0.099-0.193-0.181-0.332-0.246c-0.14-0.065-0.291-0.099-0.455-0.099
					s-0.328,0.049-0.492,0.147s-0.312,0.271-0.443,0.517c-0.164,0.312-0.25,0.701-0.258,1.169c-0.008,0.467-0.012,0.889-0.012,1.267
					v2.115c0.196-0.147,0.364-0.282,0.504-0.405c0.139-0.123,0.287-0.259,0.443-0.406c0.154-0.147,0.299-0.279,0.43-0.394
					c0.229-0.213,0.426-0.442,0.59-0.688s0.287-0.558,0.369-0.936c0.1-0.377,0.123-0.746,0.074-1.106
					S249.366,290.354,249.137,290.091z"/>
			</g>
			<g enable-background="new    ">
				<path fill="#FFFFFF" d="M253.294,274.395v4.354v1.574c0.229-0.213,0.442-0.385,0.64-0.517c0.197-0.131,0.385-0.233,0.566-0.307
					c0.18-0.074,0.372-0.127,0.578-0.16c0.204-0.033,0.438-0.05,0.7-0.05c0.312,0,0.591,0.066,0.837,0.197
					c0.246,0.132,0.459,0.304,0.639,0.517c0.181,0.213,0.32,0.451,0.419,0.714c0.099,0.262,0.147,0.517,0.147,0.762
					c0.016,0.263-0.008,0.521-0.074,0.775c-0.065,0.254-0.146,0.488-0.246,0.701c-0.114,0.278-0.295,0.524-0.541,0.738
					c-0.246,0.213-0.467,0.418-0.664,0.614c-0.065,0.065-0.205,0.181-0.418,0.345s-0.455,0.345-0.726,0.541
					c-0.271,0.197-0.554,0.397-0.849,0.603s-0.566,0.394-0.813,0.566c-0.246,0.172-0.524,0.381-0.836,0.627v-14.538h0.64V274.395z
					 M255.287,280.864c-0.083-0.099-0.193-0.181-0.332-0.246c-0.141-0.065-0.292-0.099-0.455-0.099
					c-0.165,0-0.329,0.049-0.492,0.147c-0.164,0.099-0.313,0.271-0.443,0.517c-0.164,0.312-0.25,0.701-0.258,1.169
					c-0.009,0.467-0.013,0.889-0.013,1.267v2.115c0.196-0.147,0.364-0.282,0.505-0.405c0.139-0.123,0.286-0.259,0.442-0.406
					c0.155-0.147,0.299-0.279,0.431-0.394c0.229-0.213,0.426-0.442,0.59-0.688s0.287-0.558,0.369-0.936
					c0.099-0.377,0.123-0.746,0.074-1.106C255.655,281.438,255.516,281.127,255.287,280.864z"/>
			</g>
			<g enable-background="new    ">
				<path fill="#FFFFFF" d="M259.443,286.695v4.354v1.574c0.23-0.213,0.443-0.385,0.641-0.517c0.196-0.131,0.385-0.233,0.565-0.307
					c0.181-0.074,0.372-0.127,0.578-0.16c0.204-0.033,0.438-0.05,0.7-0.05c0.313,0,0.592,0.066,0.837,0.197
					c0.246,0.132,0.459,0.304,0.64,0.517c0.18,0.213,0.32,0.451,0.418,0.714c0.099,0.262,0.148,0.517,0.148,0.762
					c0.016,0.263-0.009,0.521-0.074,0.775c-0.066,0.254-0.147,0.488-0.246,0.701c-0.115,0.278-0.295,0.524-0.541,0.738
					c-0.246,0.213-0.468,0.418-0.664,0.614c-0.066,0.065-0.205,0.181-0.418,0.345c-0.214,0.164-0.455,0.345-0.727,0.541
					c-0.271,0.197-0.553,0.397-0.848,0.603c-0.296,0.205-0.566,0.394-0.813,0.566c-0.246,0.172-0.525,0.381-0.836,0.627v-14.538
					h0.639V286.695z M261.437,293.165c-0.083-0.099-0.192-0.181-0.332-0.246s-0.292-0.099-0.455-0.099
					c-0.165,0-0.329,0.049-0.492,0.147c-0.164,0.099-0.312,0.271-0.442,0.517c-0.164,0.312-0.25,0.701-0.259,1.169
					c-0.009,0.467-0.013,0.889-0.013,1.267v2.115c0.197-0.147,0.365-0.282,0.505-0.405s0.286-0.259,0.442-0.406
					s0.299-0.279,0.431-0.394c0.229-0.213,0.427-0.442,0.591-0.688s0.287-0.558,0.369-0.936c0.098-0.377,0.123-0.746,0.073-1.106
					S261.666,293.428,261.437,293.165z"/>
			</g>
		</g>
	</g>
</g>
<g>
	<path fill="#FFFFFF" d="M326.555,256.667c-0.406,0-0.745-0.125-1.016-0.375c-0.271-0.25-0.406-0.557-0.406-0.922
		c0-0.375,0.139-0.682,0.418-0.922c0.278-0.239,0.626-0.359,1.043-0.359c0.422,0,0.767,0.121,1.035,0.363
		c0.268,0.242,0.402,0.548,0.402,0.918c0,0.38-0.137,0.691-0.41,0.934S326.992,256.667,326.555,256.667z"/>
	<path fill="#FFFFFF" d="M335.305,256.667c-0.406,0-0.745-0.125-1.016-0.375c-0.271-0.25-0.406-0.557-0.406-0.922
		c0-0.375,0.139-0.682,0.418-0.922c0.278-0.239,0.626-0.359,1.043-0.359c0.422,0,0.767,0.121,1.035,0.363
		c0.268,0.242,0.402,0.548,0.402,0.918c0,0.38-0.137,0.691-0.41,0.934S335.742,256.667,335.305,256.667z"/>
	<path fill="#FFFFFF" d="M344.055,256.667c-0.406,0-0.745-0.125-1.016-0.375c-0.271-0.25-0.406-0.557-0.406-0.922
		c0-0.375,0.139-0.682,0.418-0.922c0.278-0.239,0.626-0.359,1.043-0.359c0.422,0,0.767,0.121,1.035,0.363
		c0.268,0.242,0.402,0.548,0.402,0.918c0,0.38-0.137,0.691-0.41,0.934S344.492,256.667,344.055,256.667z"/>
</g>
<g>
	<g>
		<line fill="none" stroke="#FFFFFF" stroke-width="0.46" x1="25.8" y1="241.379" x2="75.8" y2="241.379"/>
		<line fill="none" stroke="#FFFFFF" stroke-width="0.46" x1="25.8" y1="247.53" x2="75.8" y2="247.53"/>
		<line fill="none" stroke="#FFFFFF" stroke-width="0.46" x1="25.8" y1="253.679" x2="75.8" y2="253.679"/>
		<line fill="none" stroke="#FFFFFF" stroke-width="0.46" x1="25.8" y1="259.83" x2="75.8" y2="259.83"/>
		<line fill="none" stroke="#FFFFFF" stroke-width="0.46" x1="25.8" y1="265.979" x2="75.8" y2="265.979"/>
	</g>
</g>
<rect x="20.8" y="117.358" fill="#22B570" width="167.45" height="40"/>
<g>
	<g>
		<path fill="#FFFFFF" d="M99.985,144.896h-2.074v-8.156c0-0.668,0.041-1.485,0.123-2.452h-0.035
			c-0.129,0.551-0.243,0.946-0.343,1.187l-3.762,9.422h-1.441l-3.771-9.352c-0.105-0.275-0.217-0.694-0.334-1.257h-0.035
			c0.047,0.504,0.07,1.327,0.07,2.47v8.139H86.45v-12.604h2.944l3.313,8.394c0.252,0.645,0.416,1.125,0.492,1.441h0.044
			c0.217-0.662,0.393-1.154,0.527-1.477l3.375-8.358h2.839V144.896z"/>
		<path fill="#FFFFFF" d="M113.441,144.896h-2.294l-1.134-3.208h-4.957l-1.09,3.208h-2.285l4.72-12.604h2.355L113.441,144.896z
			 M109.46,139.983l-1.749-5.027c-0.053-0.164-0.108-0.428-0.167-0.791h-0.035c-0.053,0.334-0.111,0.598-0.176,0.791l-1.731,5.027
			H109.46z"/>
		<path fill="#FFFFFF" d="M130.861,144.896h-2.681l-4.43-5.704c-0.123-0.164-0.22-0.311-0.29-0.439h-0.035v6.144h-2.021v-6.144
			h-0.035c-0.076,0.146-0.173,0.293-0.29,0.439l-4.43,5.704h-2.689l5.344-6.557l-4.966-6.047h2.522l4.175,5.379
			c0.135,0.17,0.246,0.334,0.334,0.492h0.035v-5.871h2.021v5.871h0.035c0.076-0.146,0.188-0.311,0.334-0.492l4.175-5.379h2.514
			l-4.957,6.047L130.861,144.896z"/>
		<path fill="#FFFFFF" d="M137.066,145.107c-1.816,0-3.271-0.589-4.364-1.767s-1.639-2.71-1.639-4.597
			c0-2.027,0.557-3.645,1.67-4.852s2.625-1.811,4.535-1.811c1.77,0,3.195,0.586,4.276,1.758s1.622,2.704,1.622,4.597
			c0,2.057-0.554,3.683-1.661,4.878S138.918,145.107,137.066,145.107z M137.163,133.919c-1.154,0-2.093,0.431-2.817,1.292
			s-1.085,1.995-1.085,3.401c0,1.4,0.352,2.528,1.055,3.384s1.623,1.283,2.76,1.283c1.207,0,2.159-0.407,2.856-1.222
			s1.046-1.954,1.046-3.419c0-1.506-0.338-2.669-1.015-3.489S138.353,133.919,137.163,133.919z"/>
		<path fill="#FFFFFF" d="M147.561,140.326v4.57h-2.083v-12.604h3.823c1.447,0,2.569,0.337,3.366,1.011s1.195,1.623,1.195,2.848
			s-0.416,2.227-1.248,3.006s-1.957,1.169-3.375,1.169H147.561z M147.561,134.016v4.605h1.354c0.896,0,1.579-0.208,2.048-0.624
			s0.703-1.002,0.703-1.758c0-1.482-0.861-2.224-2.584-2.224H147.561z"/>
	</g>
	<g>
		<path fill="#FFFFFF" d="M64.726,145.785c-2.518,0-4.665-0.889-6.444-2.666c-1.778-1.777-2.667-3.924-2.667-6.439
			s0.889-4.662,2.667-6.439c1.779-1.777,3.926-2.666,6.444-2.666c2.517,0,4.665,0.889,6.443,2.666
			c1.779,1.777,2.668,3.924,2.668,6.439s-0.889,4.662-2.668,6.439C69.391,144.896,67.243,145.785,64.726,145.785z M64.726,144.625
			c2.197,0,4.071-0.775,5.623-2.324c1.552-1.55,2.328-3.421,2.328-5.615c0-2.193-0.776-4.067-2.328-5.621
			c-1.552-1.554-3.426-2.331-5.623-2.331s-4.071,0.777-5.624,2.331c-1.552,1.553-2.328,3.427-2.328,5.621
			c0,2.194,0.776,4.065,2.328,5.615C60.655,143.85,62.529,144.625,64.726,144.625z M59.376,137.184h0.715
			c0.571,2.508,2.116,3.762,4.635,3.762s4.063-1.254,4.635-3.762h0.727c-0.18,1.625-0.745,2.898-1.695,3.82
			s-2.172,1.383-3.666,1.383s-2.714-0.461-3.66-1.383S59.556,138.809,59.376,137.184z M61.826,135.227
			c-0.398,0-0.738-0.141-1.02-0.422s-0.422-0.621-0.422-1.02s0.141-0.738,0.422-1.02s0.621-0.422,1.02-0.422
			c0.406,0,0.75,0.141,1.031,0.422s0.422,0.621,0.422,1.02s-0.143,0.738-0.428,1.02S62.224,135.227,61.826,135.227z M67.626,135.227
			c-0.398,0-0.74-0.141-1.025-0.422s-0.428-0.621-0.428-1.02s0.143-0.738,0.428-1.02s0.627-0.422,1.025-0.422
			s0.738,0.141,1.02,0.422s0.422,0.621,0.422,1.02s-0.141,0.738-0.422,1.02S68.025,135.227,67.626,135.227z"/>
	</g>
</g>
<g>
	<rect x="197.884" y="117.358" fill="#006838" width="167.449" height="40"/>
	<g>
		<g>
			<path fill="#FFFFFF" d="M277.936,144.896h-2.074v-8.156c0-0.668,0.041-1.485,0.123-2.452h-0.035
				c-0.129,0.551-0.244,0.946-0.344,1.187l-3.762,9.422h-1.441l-3.77-9.352c-0.105-0.275-0.217-0.694-0.334-1.257h-0.035
				c0.047,0.504,0.07,1.327,0.07,2.47v8.139H264.4v-12.604h2.943l3.314,8.394c0.252,0.645,0.416,1.125,0.492,1.441h0.043
				c0.217-0.662,0.393-1.154,0.527-1.477l3.375-8.358h2.84V144.896z"/>
			<path fill="#FFFFFF" d="M291.725,144.896h-2.012v-8.394c0-0.756,0.029-1.289,0.088-1.6h-0.053
				c-0.1,0.264-0.223,0.507-0.369,0.729l-6.047,9.264h-2.295v-12.604h2.021v8.016c0,0.92-0.023,1.521-0.07,1.802h0.035
				c0.117-0.234,0.27-0.492,0.457-0.773l5.836-9.044h2.408V144.896z"/>
			<path fill="#FFFFFF" d="M304.979,144.896h-2.1v-5.467h-5.934v5.467h-2.092v-12.604h2.092v5.3h5.934v-5.3h2.1V144.896z"/>
			<path fill="#FFFFFF" d="M313.285,145.106c-1.816,0-3.271-0.589-4.364-1.767s-1.64-2.71-1.64-4.597
				c0-2.027,0.557-3.645,1.67-4.852s2.625-1.811,4.535-1.811c1.77,0,3.195,0.586,4.276,1.758s1.622,2.704,1.622,4.597
				c0,2.057-0.555,3.683-1.662,4.878S315.137,145.106,313.285,145.106z M313.381,133.918c-1.154,0-2.093,0.431-2.816,1.292
				s-1.086,1.995-1.086,3.401c0,1.4,0.352,2.528,1.055,3.384s1.623,1.283,2.76,1.283c1.207,0,2.16-0.407,2.857-1.222
				s1.045-1.954,1.045-3.419c0-1.506-0.338-2.669-1.015-3.489S314.57,133.918,313.381,133.918z"/>
			<path fill="#FFFFFF" d="M323.779,140.325v4.57h-2.084v-12.604h3.824c1.447,0,2.568,0.337,3.365,1.011s1.195,1.623,1.195,2.848
				s-0.416,2.227-1.248,3.006s-1.957,1.169-3.375,1.169H323.779z M323.779,134.015v4.605h1.354c0.896,0,1.578-0.208,2.047-0.624
				s0.703-1.002,0.703-1.758c0-1.482-0.861-2.224-2.584-2.224H323.779z"/>
		</g>
		<g>
			<path fill="#FFFFFF" d="M242.676,145.784c-2.518,0-4.665-0.889-6.443-2.666c-1.779-1.777-2.668-3.924-2.668-6.439
				s0.889-4.662,2.668-6.439c1.778-1.777,3.926-2.666,6.443-2.666s4.665,0.889,6.443,2.666c1.779,1.777,2.668,3.924,2.668,6.439
				s-0.889,4.662-2.668,6.439C247.341,144.896,245.193,145.784,242.676,145.784z M242.676,144.624c2.197,0,4.071-0.775,5.623-2.324
				c1.553-1.55,2.328-3.421,2.328-5.615c0-2.193-0.775-4.067-2.328-5.621c-1.552-1.554-3.426-2.331-5.623-2.331
				s-4.071,0.777-5.623,2.331c-1.553,1.553-2.328,3.427-2.328,5.621c0,2.194,0.775,4.065,2.328,5.615
				C238.604,143.849,240.479,144.624,242.676,144.624z M238.041,141.378h-0.715c0.172-1.625,0.733-2.898,1.684-3.82
				s2.172-1.383,3.666-1.383s2.716,0.461,3.666,1.383s1.516,2.195,1.695,3.82h-0.727c-0.563-2.508-2.108-3.762-4.635-3.762
				C240.157,137.616,238.611,138.87,238.041,141.378z M239.775,135.226c-0.398,0-0.738-0.141-1.02-0.422s-0.422-0.621-0.422-1.02
				s0.141-0.738,0.422-1.02s0.621-0.422,1.02-0.422c0.406,0,0.75,0.141,1.031,0.422s0.422,0.621,0.422,1.02s-0.143,0.738-0.428,1.02
				S240.174,135.226,239.775,135.226z M245.576,135.226c-0.398,0-0.74-0.141-1.025-0.422s-0.428-0.621-0.428-1.02
				s0.143-0.738,0.428-1.02s0.627-0.422,1.025-0.422s0.738,0.141,1.02,0.422s0.422,0.621,0.422,1.02s-0.141,0.738-0.422,1.02
				S245.975,135.226,245.576,135.226z"/>
		</g>
	</g>
</g>
<rect x="20.657" y="346" fill="#006838" width="167.45" height="60"/>
<rect x="197.883" y="346" fill="#006838" width="167.45" height="60"/>
<rect x="20.359" y="416.75" fill="#006838" width="167.45" height="60"/>
<rect x="197.883" y="416.75" fill="#006838" width="167.45" height="60"/>
<rect x="20.729" y="487.5" fill="#006838" width="167.45" height="60"/>
<rect x="197.883" y="487.5" fill="#006838" width="167.45" height="60"/>
<g>
	<g>
		<line fill="none" stroke="#FFFFFF" stroke-width="0.499" x1="29.382" y1="362.329" x2="179.382" y2="362.329"/>
		<line fill="none" stroke="#FFFFFF" stroke-width="0.499" x1="29.382" y1="368.991" x2="179.382" y2="368.991"/>
		<line fill="none" stroke="#FFFFFF" stroke-width="0.499" x1="29.382" y1="375.655" x2="179.382" y2="375.655"/>
		<line fill="none" stroke="#FFFFFF" stroke-width="0.499" x1="29.382" y1="382.317" x2="179.382" y2="382.317"/>
		<line fill="none" stroke="#FFFFFF" stroke-width="0.499" x1="29.382" y1="388.979" x2="179.382" y2="388.979"/>
	</g>
	<path fill="#FFFFFF" d="M52.692,383.679c0.053,0.426,0.213,0.799,0.479,1.119c0.239,0.32,0.587,0.561,1.013,0.746
		c0.4,0.188,0.906,0.294,1.467,0.294c0.559,0,1.119-0.08,1.679-0.267c0.56-0.16,1.066-0.4,1.546-0.72
		c0.48-0.294,0.906-0.667,1.279-1.093c0.374-0.4,0.641-0.854,0.827-1.333s0.239-0.933,0.187-1.36c-0.08-0.398-0.24-0.772-0.48-1.092
		c-0.239-0.293-0.586-0.561-1.012-0.746c-0.428-0.188-0.934-0.268-1.494-0.268c-0.559,0-1.119,0.08-1.679,0.24
		c-0.56,0.187-1.066,0.426-1.546,0.72c-0.48,0.319-0.906,0.692-1.253,1.093c-0.374,0.4-0.64,0.854-0.827,1.333
		C52.692,382.825,52.638,383.278,52.692,383.679L52.692,383.679z"/>
	
		<line fill="none" stroke="#FFFFFF" stroke-width="0.4988" stroke-miterlimit="10" x1="76.51" y1="376.767" x2="76.51" y2="398.976"/>
	<path fill="#FFFFFF" d="M76.288,377.016c0.053,0.427,0.213,0.8,0.479,1.12c0.24,0.319,0.587,0.559,1.013,0.746
		c0.4,0.186,0.906,0.293,1.467,0.293c0.56,0,1.119-0.08,1.68-0.267c0.559-0.16,1.066-0.399,1.545-0.72
		c0.48-0.293,0.907-0.666,1.28-1.094c0.373-0.398,0.64-0.852,0.826-1.332s0.24-0.934,0.187-1.359c-0.08-0.4-0.24-0.773-0.479-1.094
		c-0.24-0.293-0.587-0.559-1.013-0.746c-0.427-0.186-0.934-0.266-1.493-0.266s-1.12,0.08-1.679,0.239
		c-0.561,0.187-1.066,0.427-1.547,0.72c-0.48,0.32-0.906,0.693-1.253,1.093c-0.373,0.399-0.64,0.853-0.826,1.333
		S76.234,376.616,76.288,377.016L76.288,377.016z"/>
	
		<line fill="none" stroke="#FFFFFF" stroke-width="0.4988" stroke-miterlimit="10" x1="100.107" y1="370.104" x2="100.107" y2="392.313"/>
	<path fill="#FFFFFF" d="M99.884,370.354c0.054,0.427,0.214,0.8,0.479,1.12c0.24,0.319,0.587,0.559,1.014,0.746
		c0.399,0.187,0.906,0.293,1.466,0.293s1.12-0.08,1.68-0.267c0.56-0.159,1.065-0.399,1.546-0.72c0.48-0.293,0.906-0.666,1.279-1.093
		c0.373-0.399,0.641-0.853,0.826-1.333c0.188-0.48,0.24-0.934,0.188-1.359c-0.08-0.4-0.24-0.773-0.48-1.093
		c-0.24-0.294-0.586-0.56-1.013-0.747c-0.427-0.186-0.933-0.266-1.493-0.266c-0.56,0-1.119,0.08-1.68,0.239
		c-0.559,0.187-1.065,0.427-1.545,0.72c-0.48,0.32-0.906,0.693-1.254,1.094c-0.373,0.399-0.639,0.853-0.826,1.332
		C99.884,369.501,99.831,369.954,99.884,370.354L99.884,370.354z"/>
	
		<line fill="none" stroke="#FFFFFF" stroke-width="0.4988" stroke-miterlimit="10" x1="123.981" y1="376.767" x2="123.981" y2="398.976"/>
	<path fill="#FFFFFF" d="M123.758,377.016c0.053,0.427,0.213,0.8,0.48,1.12c0.239,0.319,0.586,0.559,1.013,0.746
		c0.399,0.186,0.906,0.293,1.466,0.293c0.561,0,1.119-0.08,1.68-0.267c0.56-0.16,1.066-0.399,1.546-0.72
		c0.479-0.293,0.906-0.666,1.28-1.094c0.373-0.398,0.639-0.852,0.826-1.332c0.186-0.48,0.239-0.934,0.186-1.359
		c-0.08-0.4-0.239-0.773-0.479-1.094c-0.239-0.293-0.587-0.559-1.013-0.746c-0.427-0.186-0.934-0.266-1.492-0.266
		c-0.561,0-1.12,0.08-1.68,0.239c-0.561,0.187-1.066,0.427-1.547,0.72c-0.479,0.32-0.906,0.693-1.252,1.093
		c-0.373,0.399-0.641,0.853-0.827,1.333S123.706,376.616,123.758,377.016L123.758,377.016z"/>
	
		<line fill="none" stroke="#FFFFFF" stroke-width="0.4988" stroke-miterlimit="10" x1="156.078" y1="381.208" x2="156.078" y2="359"/>
	<path fill="#FFFFFF" d="M155.378,379.387c-0.214-0.134-0.427-0.239-0.64-0.319c-0.24-0.08-0.453-0.134-0.667-0.16
		c-0.213-0.027-0.399-0.027-0.532-0.054c-0.747-0.08-1.414-0.054-2,0.08c-0.613,0.134-1.119,0.319-1.52,0.56
		s-0.854,0.586-1.307,1.04c-0.453,0.453-0.826,1.013-1.066,1.679c-0.053,0.134-0.105,0.293-0.159,0.48
		c-0.054,0.187-0.08,0.4-0.106,0.613c-0.027,0.24-0.027,0.453,0,0.693c0.026,0.239,0.106,0.479,0.24,0.719
		c0.133,0.213,0.293,0.4,0.533,0.533c0.213,0.134,0.453,0.268,0.692,0.347c0.239,0.08,0.479,0.16,0.72,0.187
		c0.24,0.027,0.427,0.054,0.613,0.08c1.199,0.107,2.239-0.053,3.119-0.506c0.399-0.188,0.853-0.561,1.359-1.066
		c0.506-0.507,0.879-1.12,1.119-1.787c0.054-0.133,0.107-0.293,0.16-0.506s0.106-0.453,0.133-0.693c0.027-0.24,0.027-0.479,0-0.719
		c-0.026-0.24-0.105-0.453-0.213-0.641C155.725,379.706,155.565,379.521,155.378,379.387L155.378,379.387z M155.378,381.04
		c-0.054,0.239-0.16,0.453-0.294,0.639c-0.133,0.188-0.319,0.373-0.506,0.533c-0.213,0.16-0.4,0.293-0.586,0.428
		c-0.294,0.186-0.533,0.373-0.773,0.506s-0.507,0.293-0.773,0.426c-0.267,0.134-0.533,0.294-0.773,0.428
		c-0.266,0.133-0.559,0.293-0.853,0.426c-0.214,0.107-0.453,0.213-0.692,0.293c-0.24,0.08-0.48,0.134-0.721,0.16
		c-0.24,0.027-0.479,0.027-0.693-0.053c-0.213-0.08-0.373-0.213-0.506-0.427s-0.16-0.427-0.106-0.667
		c0.026-0.213,0.133-0.426,0.267-0.613c0.133-0.186,0.32-0.373,0.533-0.533c0.186-0.159,0.399-0.293,0.586-0.426
		c0.533-0.347,1.066-0.666,1.572-0.959c0.268-0.135,0.533-0.294,0.773-0.428c0.24-0.133,0.507-0.293,0.8-0.426
		c0.214-0.107,0.454-0.213,0.693-0.293s0.507-0.134,0.746-0.16c0.24-0.027,0.454,0,0.667,0.08c0.187,0.08,0.373,0.213,0.506,0.426
		C155.378,380.612,155.405,380.826,155.378,381.04L155.378,381.04z"/>
	
		<line fill="none" stroke="#FFFFFF" stroke-width="0.4988" stroke-miterlimit="10" x1="61.188" y1="359.81" x2="61.188" y2="382.019"/>
</g>
<g>
	<line fill="none" stroke="#FFFFFF" stroke-width="0.499" x1="206.608" y1="362.551" x2="356.608" y2="362.551"/>
	<line fill="none" stroke="#FFFFFF" stroke-width="0.499" x1="206.608" y1="369.213" x2="356.608" y2="369.213"/>
	<line fill="none" stroke="#FFFFFF" stroke-width="0.499" x1="206.608" y1="375.877" x2="356.608" y2="375.877"/>
	<line fill="none" stroke="#FFFFFF" stroke-width="0.499" x1="206.608" y1="382.539" x2="356.608" y2="382.539"/>
	<line fill="none" stroke="#FFFFFF" stroke-width="0.499" x1="206.608" y1="389.201" x2="356.608" y2="389.201"/>
</g>
<line fill="none" stroke="#FFFFFF" stroke-width="0.4988" stroke-miterlimit="10" x1="241.939" y1="376.988" x2="241.939" y2="399.197"/>
<path fill="#FFFFFF" d="M241.717,377.237c0.053,0.427,0.213,0.8,0.479,1.12c0.24,0.319,0.588,0.559,1.014,0.746
	c0.4,0.186,0.906,0.293,1.467,0.293c0.559,0,1.119-0.08,1.68-0.267c0.559-0.16,1.066-0.399,1.545-0.72
	c0.48-0.293,0.906-0.666,1.279-1.094c0.373-0.398,0.641-0.852,0.826-1.332c0.188-0.48,0.24-0.934,0.188-1.359
	c-0.08-0.4-0.24-0.773-0.48-1.094c-0.24-0.293-0.586-0.559-1.012-0.746c-0.428-0.186-0.934-0.266-1.494-0.266
	c-0.559,0-1.119,0.08-1.678,0.239c-0.561,0.187-1.068,0.427-1.547,0.72c-0.48,0.32-0.906,0.693-1.254,1.093
	c-0.373,0.399-0.639,0.853-0.826,1.333C241.717,376.385,241.662,376.838,241.717,377.237L241.717,377.237z"/>
<line fill="none" stroke="#FFFFFF" stroke-width="0.4988" stroke-miterlimit="10" x1="273.285" y1="381.43" x2="273.285" y2="359.222"/>
<path fill="#FFFFFF" d="M265.313,383.9c0.053,0.426,0.213,0.799,0.48,1.119c0.238,0.32,0.586,0.561,1.012,0.746
	c0.4,0.188,0.906,0.294,1.467,0.294s1.119-0.08,1.68-0.267c0.559-0.16,1.066-0.4,1.545-0.72c0.48-0.294,0.906-0.667,1.281-1.093
	c0.373-0.4,0.639-0.854,0.826-1.333c0.186-0.479,0.238-0.933,0.186-1.36c-0.08-0.398-0.24-0.772-0.48-1.092
	c-0.238-0.293-0.586-0.561-1.012-0.746c-0.428-0.188-0.934-0.268-1.492-0.268c-0.561,0-1.121,0.08-1.68,0.24
	c-0.561,0.187-1.066,0.426-1.547,0.72c-0.48,0.319-0.906,0.692-1.252,1.093c-0.373,0.4-0.641,0.854-0.828,1.333
	C265.313,383.047,265.26,383.5,265.313,383.9L265.313,383.9z"/>
<line fill="none" stroke="#FFFFFF" stroke-width="0.4988" stroke-miterlimit="10" x1="297.16" y1="391.424" x2="297.16" y2="369.216"/>
<path fill="#FFFFFF" d="M289.186,393.893c0.055,0.428,0.215,0.801,0.48,1.12c0.24,0.319,0.586,0.56,1.014,0.747
	c0.398,0.186,0.906,0.293,1.465,0.293c0.561,0,1.121-0.08,1.68-0.268c0.561-0.159,1.066-0.398,1.547-0.719
	c0.48-0.293,0.906-0.666,1.279-1.094c0.374-0.399,0.641-0.853,0.827-1.332c0.187-0.48,0.239-0.934,0.187-1.359
	c-0.08-0.4-0.24-0.773-0.48-1.094c-0.239-0.293-0.586-0.56-1.013-0.746s-0.933-0.267-1.493-0.267s-1.119,0.08-1.68,0.239
	c-0.559,0.188-1.066,0.428-1.545,0.721c-0.48,0.32-0.906,0.693-1.254,1.093c-0.373,0.399-0.639,0.853-0.826,1.333
	C289.186,393.04,289.133,393.493,289.186,393.893L289.186,393.893z"/>
<line fill="none" stroke="#FFFFFF" stroke-width="0.4988" stroke-miterlimit="10" x1="321.508" y1="381.43" x2="321.508" y2="359.222"/>
<path fill="#FFFFFF" d="M320.808,379.608c-0.213-0.134-0.427-0.239-0.64-0.319c-0.24-0.08-0.453-0.134-0.666-0.16
	c-0.214-0.027-0.4-0.027-0.533-0.054c-0.747-0.08-1.413-0.054-2,0.08c-0.613,0.134-1.119,0.319-1.52,0.56
	c-0.399,0.24-0.853,0.586-1.306,1.04c-0.453,0.453-0.826,1.013-1.066,1.679c-0.054,0.134-0.106,0.293-0.16,0.48
	c-0.053,0.187-0.08,0.4-0.106,0.613c-0.026,0.24-0.026,0.453,0,0.693c0.026,0.239,0.106,0.479,0.24,0.719
	c0.133,0.213,0.293,0.4,0.533,0.533c0.213,0.134,0.453,0.268,0.692,0.347c0.24,0.08,0.48,0.16,0.72,0.187
	c0.24,0.027,0.427,0.054,0.613,0.08c1.2,0.107,2.239-0.053,3.119-0.506c0.399-0.188,0.853-0.561,1.359-1.066
	c0.507-0.507,0.88-1.12,1.119-1.787c0.054-0.133,0.107-0.293,0.16-0.506c0.054-0.213,0.107-0.453,0.134-0.693s0.026-0.479,0-0.719
	c-0.026-0.24-0.106-0.453-0.214-0.641C321.154,379.928,320.994,379.742,320.808,379.608L320.808,379.608z M320.808,381.262
	c-0.054,0.239-0.16,0.453-0.293,0.639c-0.134,0.188-0.32,0.373-0.507,0.533c-0.213,0.16-0.399,0.293-0.586,0.428
	c-0.294,0.186-0.533,0.373-0.773,0.506s-0.507,0.293-0.773,0.426c-0.267,0.134-0.533,0.294-0.772,0.428
	c-0.267,0.133-0.56,0.293-0.854,0.426c-0.213,0.107-0.453,0.213-0.692,0.293c-0.24,0.08-0.48,0.134-0.72,0.16
	c-0.24,0.027-0.48,0.027-0.693-0.053c-0.214-0.08-0.373-0.213-0.507-0.427c-0.133-0.214-0.16-0.427-0.106-0.667
	c0.026-0.213,0.134-0.426,0.267-0.613c0.133-0.186,0.32-0.373,0.533-0.533c0.187-0.159,0.399-0.293,0.586-0.426
	c0.533-0.347,1.066-0.666,1.573-0.959c0.267-0.135,0.533-0.294,0.773-0.428c0.239-0.133,0.506-0.293,0.8-0.426
	c0.213-0.107,0.453-0.213,0.692-0.293c0.24-0.08,0.507-0.134,0.747-0.16c0.239-0.027,0.453,0,0.666,0.08
	c0.187,0.08,0.373,0.213,0.507,0.426C320.808,380.834,320.834,381.048,320.808,381.262L320.808,381.262z"/>
<g>
	<g>
		<line fill="none" stroke="#FFFFFF" stroke-width="0.499" x1="29.084" y1="433.884" x2="179.085" y2="433.884"/>
		<line fill="none" stroke="#FFFFFF" stroke-width="0.499" x1="29.084" y1="440.546" x2="179.085" y2="440.546"/>
		<line fill="none" stroke="#FFFFFF" stroke-width="0.499" x1="29.084" y1="447.21" x2="179.085" y2="447.21"/>
		<line fill="none" stroke="#FFFFFF" stroke-width="0.499" x1="29.084" y1="453.872" x2="179.085" y2="453.872"/>
		<line fill="none" stroke="#FFFFFF" stroke-width="0.499" x1="29.084" y1="460.534" x2="179.085" y2="460.534"/>
	</g>
	
		<line fill="none" stroke="#FFFFFF" stroke-width="0.4988" stroke-miterlimit="10" x1="52.895" y1="448.321" x2="52.895" y2="470.53"/>
	<path fill="#FFFFFF" d="M52.671,448.57c0.054,0.427,0.214,0.8,0.48,1.12c0.239,0.319,0.586,0.559,1.013,0.746
		c0.399,0.186,0.906,0.293,1.466,0.293c0.561,0,1.12-0.08,1.68-0.267c0.56-0.16,1.066-0.399,1.546-0.72
		c0.479-0.293,0.906-0.666,1.279-1.094c0.374-0.398,0.641-0.852,0.827-1.332s0.239-0.934,0.187-1.359
		c-0.08-0.4-0.24-0.773-0.48-1.094c-0.239-0.293-0.586-0.559-1.013-0.746c-0.427-0.186-0.933-0.266-1.493-0.266
		c-0.56,0-1.119,0.08-1.679,0.239c-0.561,0.187-1.066,0.427-1.546,0.72c-0.48,0.32-0.907,0.693-1.253,1.093
		c-0.374,0.399-0.641,0.853-0.827,1.333S52.619,448.171,52.671,448.57L52.671,448.57z"/>
	
		<line fill="none" stroke="#FFFFFF" stroke-width="0.4988" stroke-miterlimit="10" x1="84.243" y1="452.763" x2="84.243" y2="430.555"/>
	<path fill="#FFFFFF" d="M76.269,455.233c0.053,0.426,0.213,0.799,0.479,1.119c0.24,0.32,0.586,0.561,1.013,0.746
		c0.4,0.188,0.906,0.294,1.467,0.294c0.56,0,1.119-0.08,1.679-0.267c0.56-0.16,1.066-0.4,1.546-0.72
		c0.48-0.294,0.907-0.667,1.28-1.093c0.373-0.4,0.64-0.854,0.826-1.333s0.24-0.933,0.187-1.36c-0.08-0.398-0.24-0.772-0.479-1.092
		c-0.24-0.293-0.587-0.561-1.014-0.746c-0.426-0.188-0.933-0.268-1.492-0.268s-1.12,0.08-1.68,0.24
		c-0.56,0.187-1.066,0.426-1.546,0.72c-0.48,0.319-0.906,0.692-1.253,1.093c-0.373,0.4-0.64,0.854-0.826,1.333
		S76.215,454.833,76.269,455.233L76.269,455.233z"/>
	
		<line fill="none" stroke="#FFFFFF" stroke-width="0.4988" stroke-miterlimit="10" x1="107.561" y1="449.432" x2="107.561" y2="427.224"/>
	<path fill="#FFFFFF" d="M99.587,451.901c0.054,0.426,0.214,0.8,0.48,1.119c0.239,0.32,0.586,0.561,1.013,0.746
		c0.399,0.188,0.906,0.294,1.466,0.294s1.12-0.08,1.68-0.267c0.56-0.16,1.066-0.4,1.546-0.72c0.479-0.294,0.906-0.667,1.279-1.093
		c0.374-0.4,0.64-0.854,0.827-1.333c0.187-0.479,0.239-0.933,0.187-1.359c-0.08-0.399-0.24-0.773-0.48-1.093
		c-0.239-0.293-0.586-0.561-1.013-0.746c-0.427-0.188-0.933-0.268-1.493-0.268c-0.56,0-1.119,0.08-1.679,0.24
		c-0.561,0.187-1.066,0.426-1.547,0.72c-0.479,0.319-0.906,0.692-1.252,1.093c-0.374,0.4-0.641,0.854-0.827,1.333
		S99.535,451.501,99.587,451.901L99.587,451.901z"/>
	
		<line fill="none" stroke="#FFFFFF" stroke-width="0.4988" stroke-miterlimit="10" x1="131.157" y1="456.094" x2="131.157" y2="433.886"/>
	<path fill="#FFFFFF" d="M123.183,458.563c0.054,0.428,0.214,0.801,0.48,1.121c0.239,0.319,0.586,0.559,1.013,0.746
		c0.399,0.186,0.906,0.293,1.466,0.293c0.561,0,1.12-0.08,1.68-0.267c0.56-0.16,1.066-0.399,1.546-0.72
		c0.48-0.293,0.906-0.666,1.28-1.094c0.373-0.399,0.64-0.853,0.826-1.332c0.187-0.48,0.239-0.934,0.187-1.359
		c-0.08-0.4-0.24-0.773-0.479-1.094c-0.24-0.293-0.587-0.559-1.014-0.746c-0.427-0.187-0.933-0.266-1.492-0.266
		c-0.561,0-1.12,0.079-1.68,0.239c-0.56,0.187-1.066,0.427-1.546,0.72c-0.48,0.32-0.906,0.693-1.253,1.093
		c-0.373,0.399-0.64,0.853-0.826,1.333C123.183,457.712,123.13,458.165,123.183,458.563L123.183,458.563z"/>
	
		<line fill="none" stroke="#FFFFFF" stroke-width="0.4988" stroke-miterlimit="10" x1="155.504" y1="462.757" x2="155.504" y2="440.549"/>
	<path fill="#FFFFFF" d="M154.803,460.935c-0.213-0.133-0.427-0.24-0.64-0.32c-0.24-0.08-0.453-0.133-0.666-0.16
		c-0.214-0.026-0.4-0.026-0.533-0.053c-0.747-0.08-1.413-0.053-2,0.08c-0.612,0.133-1.119,0.32-1.52,0.56
		c-0.399,0.239-0.853,0.587-1.306,1.04s-0.826,1.013-1.066,1.68c-0.054,0.133-0.106,0.293-0.16,0.479
		c-0.053,0.188-0.08,0.4-0.106,0.613c-0.026,0.24-0.026,0.453,0,0.693s0.106,0.48,0.24,0.721c0.133,0.213,0.293,0.398,0.533,0.532
		c0.213,0.134,0.453,0.267,0.692,0.347c0.24,0.08,0.48,0.16,0.72,0.187c0.24,0.026,0.427,0.054,0.613,0.08
		c1.2,0.106,2.239-0.054,3.119-0.507c0.399-0.186,0.854-0.56,1.359-1.066c0.507-0.506,0.88-1.119,1.12-1.785
		c0.053-0.134,0.106-0.293,0.159-0.507c0.054-0.214,0.107-0.453,0.134-0.692c0.026-0.24,0.026-0.48,0-0.721s-0.106-0.453-0.214-0.64
		C155.15,461.255,154.99,461.067,154.803,460.935L154.803,460.935z M154.803,462.587c-0.053,0.24-0.16,0.453-0.293,0.641
		c-0.134,0.186-0.32,0.373-0.507,0.533c-0.213,0.159-0.399,0.293-0.586,0.426c-0.294,0.187-0.533,0.373-0.773,0.506
		c-0.24,0.134-0.506,0.294-0.773,0.428c-0.266,0.133-0.532,0.293-0.772,0.426c-0.267,0.133-0.56,0.293-0.854,0.427
		c-0.213,0.106-0.453,0.214-0.692,0.294c-0.24,0.079-0.48,0.133-0.72,0.159c-0.24,0.026-0.48,0.026-0.693-0.054
		s-0.373-0.213-0.507-0.426c-0.133-0.213-0.16-0.427-0.106-0.666c0.026-0.214,0.134-0.428,0.267-0.613
		c0.134-0.188,0.32-0.373,0.533-0.533c0.187-0.16,0.4-0.294,0.587-0.428c0.532-0.346,1.065-0.666,1.572-0.959
		c0.267-0.133,0.533-0.293,0.773-0.426c0.239-0.134,0.506-0.294,0.8-0.428c0.213-0.105,0.453-0.213,0.692-0.293
		c0.24-0.08,0.507-0.133,0.747-0.16c0.239-0.026,0.453,0,0.666,0.08c0.187,0.08,0.373,0.213,0.507,0.427
		C154.803,462.161,154.83,462.374,154.803,462.587L154.803,462.587z"/>
</g>
<g>
	<g>
	</g>
	<g>
		<line fill="none" stroke="#FFFFFF" stroke-width="0.499" x1="206.608" y1="433.734" x2="356.607" y2="433.734"/>
		<line fill="none" stroke="#FFFFFF" stroke-width="0.499" x1="206.608" y1="440.396" x2="356.607" y2="440.396"/>
		<line fill="none" stroke="#FFFFFF" stroke-width="0.499" x1="206.608" y1="447.059" x2="356.607" y2="447.059"/>
		<line fill="none" stroke="#FFFFFF" stroke-width="0.499" x1="206.608" y1="453.721" x2="356.607" y2="453.721"/>
		<line fill="none" stroke="#FFFFFF" stroke-width="0.499" x1="206.608" y1="460.383" x2="356.607" y2="460.383"/>
	</g>
	
		<line fill="none" stroke="#FFFFFF" stroke-width="0.4988" stroke-miterlimit="10" x1="240.551" y1="444.838" x2="240.551" y2="467.047"/>
	<path fill="#FFFFFF" d="M240.328,445.088c0.053,0.426,0.213,0.799,0.48,1.119c0.238,0.32,0.586,0.56,1.012,0.746
		c0.4,0.188,0.906,0.293,1.467,0.293s1.119-0.08,1.68-0.266c0.559-0.16,1.066-0.4,1.545-0.721c0.48-0.293,0.906-0.666,1.281-1.092
		c0.373-0.4,0.639-0.854,0.826-1.334c0.186-0.479,0.238-0.933,0.186-1.359c-0.08-0.399-0.24-0.773-0.479-1.093
		c-0.24-0.293-0.588-0.56-1.014-0.746s-0.934-0.267-1.492-0.267c-0.561,0-1.121,0.08-1.68,0.24
		c-0.561,0.186-1.066,0.426-1.547,0.719c-0.48,0.32-0.906,0.693-1.252,1.094c-0.373,0.399-0.641,0.854-0.826,1.332
		C240.328,444.234,240.275,444.688,240.328,445.088L240.328,445.088z"/>
	
		<line fill="none" stroke="#FFFFFF" stroke-width="0.4988" stroke-miterlimit="10" x1="273.008" y1="449.279" x2="273.008" y2="427.072"/>
	<path fill="#FFFFFF" d="M265.035,451.75c0.053,0.427,0.213,0.801,0.479,1.12c0.24,0.319,0.588,0.56,1.014,0.746
		c0.4,0.187,0.906,0.294,1.467,0.294c0.559,0,1.119-0.08,1.68-0.268c0.559-0.16,1.064-0.399,1.545-0.719
		c0.48-0.294,0.906-0.667,1.279-1.094c0.373-0.4,0.641-0.854,0.826-1.332c0.188-0.48,0.24-0.934,0.188-1.359
		c-0.08-0.4-0.24-0.773-0.48-1.094c-0.24-0.293-0.586-0.56-1.012-0.746c-0.428-0.188-0.934-0.267-1.494-0.267
		c-0.559,0-1.119,0.079-1.68,0.239c-0.559,0.188-1.064,0.427-1.545,0.721c-0.48,0.319-0.906,0.692-1.254,1.092
		c-0.373,0.4-0.639,0.854-0.826,1.334C265.035,450.897,264.98,451.351,265.035,451.75L265.035,451.75z"/>
	
		<line fill="none" stroke="#FFFFFF" stroke-width="0.4988" stroke-miterlimit="10" x1="297.438" y1="455.941" x2="297.438" y2="433.734"/>
	<path fill="#FFFFFF" d="M289.463,458.412c0.055,0.427,0.215,0.8,0.48,1.119c0.24,0.32,0.586,0.561,1.014,0.747
		c0.398,0.187,0.906,0.294,1.465,0.294c0.561,0,1.121-0.08,1.68-0.268c0.561-0.16,1.066-0.399,1.547-0.719
		c0.479-0.294,0.906-0.667,1.279-1.094c0.373-0.4,0.639-0.854,0.826-1.332c0.188-0.48,0.24-0.934,0.188-1.36
		c-0.08-0.399-0.24-0.772-0.48-1.093c-0.24-0.293-0.586-0.561-1.014-0.746c-0.426-0.188-0.932-0.268-1.492-0.268
		s-1.119,0.08-1.68,0.24c-0.561,0.188-1.066,0.427-1.547,0.721c-0.479,0.319-0.906,0.692-1.252,1.092
		c-0.373,0.4-0.641,0.854-0.826,1.334C289.463,457.559,289.41,458.013,289.463,458.412L289.463,458.412z"/>
	
		<line fill="none" stroke="#FFFFFF" stroke-width="0.4988" stroke-miterlimit="10" x1="322.895" y1="462.605" x2="322.895" y2="440.396"/>
	<path fill="#FFFFFF" d="M322.195,460.783c-0.215-0.134-0.428-0.24-0.641-0.32c-0.24-0.08-0.453-0.133-0.666-0.16
		s-0.4-0.027-0.533-0.053c-0.746-0.08-1.414-0.054-2,0.08c-0.613,0.133-1.119,0.319-1.52,0.559c-0.4,0.24-0.854,0.587-1.307,1.04
		s-0.826,1.013-1.066,1.68c-0.053,0.134-0.105,0.293-0.158,0.479c-0.055,0.188-0.08,0.4-0.107,0.613
		c-0.027,0.24-0.027,0.453,0,0.693s0.107,0.479,0.24,0.719c0.133,0.214,0.293,0.4,0.533,0.533c0.213,0.134,0.453,0.268,0.693,0.348
		s0.479,0.16,0.719,0.186c0.24,0.027,0.428,0.054,0.613,0.08c1.199,0.107,2.24-0.053,3.119-0.506c0.4-0.188,0.854-0.561,1.359-1.066
		s0.879-1.119,1.119-1.786c0.055-0.134,0.107-0.293,0.16-0.507c0.053-0.213,0.107-0.453,0.133-0.693
		c0.027-0.239,0.027-0.479,0-0.719c-0.025-0.24-0.105-0.453-0.213-0.641C322.541,461.103,322.381,460.916,322.195,460.783
		L322.195,460.783z M322.195,462.436c-0.055,0.24-0.16,0.453-0.295,0.64c-0.133,0.187-0.318,0.373-0.506,0.533
		c-0.213,0.159-0.4,0.293-0.586,0.427c-0.293,0.186-0.533,0.373-0.773,0.506s-0.506,0.293-0.773,0.427
		c-0.266,0.134-0.533,0.293-0.773,0.427c-0.266,0.133-0.559,0.293-0.852,0.426c-0.215,0.107-0.453,0.214-0.693,0.293
		c-0.24,0.08-0.48,0.134-0.721,0.16c-0.24,0.027-0.479,0.027-0.693-0.053c-0.213-0.08-0.373-0.213-0.506-0.427
		c-0.133-0.213-0.16-0.427-0.105-0.667c0.025-0.213,0.133-0.426,0.266-0.612s0.32-0.374,0.533-0.533
		c0.188-0.16,0.4-0.294,0.586-0.427c0.533-0.346,1.066-0.666,1.572-0.959c0.268-0.134,0.533-0.293,0.773-0.427
		s0.508-0.294,0.801-0.427c0.213-0.106,0.453-0.213,0.693-0.293c0.238-0.08,0.506-0.133,0.746-0.16s0.453,0,0.666,0.08
		c0.188,0.08,0.373,0.213,0.506,0.426C322.195,462.009,322.221,462.223,322.195,462.436L322.195,462.436z"/>
</g>
<g>
	<g>
		<line fill="none" stroke="#FFFFFF" stroke-width="0.499" x1="206.607" y1="504.141" x2="356.607" y2="504.141"/>
		<line fill="none" stroke="#FFFFFF" stroke-width="0.499" x1="206.607" y1="510.803" x2="356.607" y2="510.803"/>
		<line fill="none" stroke="#FFFFFF" stroke-width="0.499" x1="206.607" y1="517.465" x2="356.607" y2="517.465"/>
		<line fill="none" stroke="#FFFFFF" stroke-width="0.499" x1="206.607" y1="524.127" x2="356.607" y2="524.127"/>
		<line fill="none" stroke="#FFFFFF" stroke-width="0.499" x1="206.607" y1="530.789" x2="356.607" y2="530.789"/>
	</g>
	
		<line fill="none" stroke="#FFFFFF" stroke-width="0.4988" stroke-miterlimit="10" x1="252.904" y1="511.913" x2="252.904" y2="543.005"/>
	<path fill="#FFFFFF" d="M252.682,512.162c0.053,0.428,0.213,0.801,0.479,1.12c0.24,0.319,0.586,0.56,1.014,0.747
		c0.4,0.186,0.906,0.293,1.467,0.293c0.559,0,1.119-0.08,1.678-0.268c0.561-0.159,1.066-0.399,1.547-0.719
		c0.48-0.293,0.906-0.667,1.279-1.094c0.373-0.399,0.641-0.853,0.826-1.332c0.188-0.48,0.24-0.934,0.188-1.359
		c-0.08-0.4-0.24-0.773-0.48-1.094c-0.24-0.293-0.586-0.56-1.014-0.746c-0.426-0.187-0.932-0.267-1.492-0.267
		c-0.559,0-1.119,0.08-1.68,0.239c-0.559,0.188-1.066,0.428-1.545,0.721c-0.48,0.319-0.906,0.693-1.254,1.093
		c-0.373,0.399-0.639,0.853-0.826,1.333C252.682,511.31,252.627,511.763,252.682,512.162L252.682,512.162z"/>
	<path fill="#FFFFFF" d="M252.682,518.824c0.053,0.427,0.213,0.801,0.479,1.12c0.24,0.319,0.586,0.56,1.014,0.746
		c0.4,0.187,0.906,0.294,1.467,0.294c0.559,0,1.119-0.08,1.678-0.268c0.561-0.16,1.066-0.399,1.547-0.719
		c0.48-0.294,0.906-0.667,1.279-1.094c0.373-0.399,0.641-0.853,0.826-1.332c0.188-0.48,0.24-0.934,0.188-1.359
		c-0.08-0.4-0.24-0.773-0.48-1.094c-0.24-0.293-0.586-0.56-1.014-0.746c-0.426-0.188-0.932-0.267-1.492-0.267
		c-0.559,0-1.119,0.079-1.68,0.239c-0.559,0.188-1.066,0.428-1.545,0.721c-0.48,0.319-0.906,0.693-1.254,1.092
		c-0.373,0.4-0.639,0.854-0.826,1.334C252.682,517.972,252.627,518.425,252.682,518.824L252.682,518.824z"/>
	<path fill="#FFFFFF" d="M252.682,525.488c0.053,0.426,0.213,0.799,0.479,1.119c0.24,0.32,0.586,0.56,1.014,0.746
		c0.4,0.187,0.906,0.293,1.467,0.293c0.559,0,1.119-0.08,1.678-0.266c0.561-0.16,1.066-0.4,1.547-0.721
		c0.48-0.293,0.906-0.666,1.279-1.093c0.373-0.399,0.641-0.853,0.826-1.333c0.188-0.479,0.24-0.933,0.188-1.359
		c-0.08-0.399-0.24-0.773-0.48-1.093c-0.24-0.293-0.586-0.56-1.014-0.747c-0.426-0.186-0.932-0.266-1.492-0.266
		c-0.559,0-1.119,0.08-1.68,0.24c-0.559,0.186-1.066,0.426-1.545,0.719c-0.48,0.32-0.906,0.693-1.254,1.094
		c-0.373,0.399-0.639,0.853-0.826,1.332C252.682,524.635,252.627,525.088,252.682,525.488L252.682,525.488z"/>
	
		<line fill="none" stroke="#FFFFFF" stroke-width="0.4988" stroke-miterlimit="10" x1="285.361" y1="526.348" x2="285.361" y2="491.926"/>
	<path fill="#FFFFFF" d="M277.389,512.162c0.053,0.428,0.213,0.801,0.48,1.12c0.24,0.319,0.586,0.56,1.012,0.747
		c0.4,0.186,0.906,0.293,1.467,0.293s1.119-0.08,1.68-0.268c0.559-0.159,1.066-0.399,1.545-0.719
		c0.48-0.293,0.908-0.667,1.281-1.094c0.373-0.399,0.639-0.853,0.826-1.332c0.186-0.48,0.24-0.934,0.186-1.359
		c-0.08-0.4-0.24-0.773-0.479-1.094c-0.24-0.293-0.588-0.56-1.014-0.746s-0.934-0.267-1.492-0.267c-0.561,0-1.121,0.08-1.68,0.239
		c-0.561,0.188-1.066,0.428-1.547,0.721c-0.48,0.319-0.906,0.693-1.252,1.093c-0.373,0.399-0.641,0.853-0.826,1.333
		C277.389,511.31,277.336,511.763,277.389,512.162L277.389,512.162z"/>
	<path fill="#FFFFFF" d="M277.389,522.156c0.053,0.427,0.213,0.801,0.48,1.12c0.24,0.319,0.586,0.56,1.012,0.746
		c0.4,0.187,0.906,0.294,1.467,0.294s1.119-0.08,1.68-0.268c0.559-0.16,1.066-0.399,1.545-0.719c0.48-0.294,0.908-0.667,1.281-1.094
		c0.373-0.4,0.639-0.854,0.826-1.332c0.186-0.48,0.24-0.934,0.186-1.359c-0.08-0.4-0.24-0.773-0.479-1.094
		c-0.24-0.293-0.588-0.56-1.014-0.746c-0.426-0.188-0.934-0.267-1.492-0.267c-0.561,0-1.121,0.079-1.68,0.239
		c-0.561,0.188-1.066,0.427-1.547,0.721c-0.48,0.319-0.906,0.692-1.252,1.092c-0.373,0.4-0.641,0.854-0.826,1.334
		C277.389,521.304,277.336,521.757,277.389,522.156L277.389,522.156z"/>
	<path fill="#FFFFFF" d="M277.389,528.818c0.053,0.427,0.213,0.8,0.48,1.119c0.24,0.32,0.586,0.561,1.012,0.747
		c0.4,0.187,0.906,0.294,1.467,0.294s1.119-0.08,1.68-0.268c0.559-0.16,1.066-0.399,1.545-0.719c0.48-0.294,0.908-0.667,1.281-1.094
		c0.373-0.4,0.639-0.854,0.826-1.332c0.186-0.48,0.24-0.934,0.186-1.36c-0.08-0.399-0.24-0.772-0.479-1.093
		c-0.24-0.293-0.588-0.561-1.014-0.746c-0.426-0.188-0.934-0.268-1.492-0.268c-0.561,0-1.121,0.08-1.68,0.24
		c-0.561,0.188-1.066,0.427-1.547,0.721c-0.48,0.319-0.906,0.692-1.252,1.092c-0.373,0.4-0.641,0.854-0.826,1.334
		C277.389,527.965,277.336,528.419,277.389,528.818L277.389,528.818z"/>
	
		<line fill="none" stroke="#FFFFFF" stroke-width="0.4988" stroke-miterlimit="10" x1="302.039" y1="511.913" x2="302.039" y2="543.005"/>
	<path fill="#FFFFFF" d="M309.84,507.871c-0.213-0.133-0.426-0.24-0.639-0.32c-0.24-0.08-0.453-0.133-0.666-0.16
		c-0.215-0.026-0.4-0.026-0.533-0.053c-0.748-0.08-1.414-0.054-2,0.08c-0.613,0.133-1.119,0.32-1.52,0.56s-0.854,0.587-1.307,1.04
		s-0.826,1.012-1.066,1.679c-0.053,0.134-0.105,0.294-0.16,0.479c-0.053,0.188-0.08,0.4-0.105,0.613
		c-0.027,0.24-0.027,0.453,0,0.693c0.025,0.24,0.105,0.48,0.24,0.72c0.133,0.214,0.293,0.399,0.533,0.533
		c0.213,0.134,0.453,0.267,0.691,0.347c0.24,0.08,0.48,0.16,0.721,0.187s0.426,0.054,0.613,0.08
		c1.199,0.106,2.238-0.054,3.119-0.507c0.4-0.187,0.854-0.56,1.359-1.066c0.506-0.506,0.879-1.119,1.119-1.785
		c0.053-0.134,0.107-0.294,0.16-0.507c0.053-0.214,0.107-0.454,0.133-0.693c0.027-0.239,0.027-0.479,0-0.72
		c-0.025-0.24-0.105-0.453-0.213-0.64C310.188,508.191,310.027,508.004,309.84,507.871L309.84,507.871z M309.84,509.523
		c-0.053,0.24-0.16,0.453-0.293,0.641c-0.133,0.186-0.32,0.373-0.506,0.532c-0.213,0.16-0.4,0.294-0.586,0.427
		c-0.293,0.187-0.533,0.373-0.773,0.506c-0.24,0.134-0.506,0.294-0.773,0.428c-0.266,0.133-0.533,0.293-0.773,0.426
		c-0.266,0.133-0.559,0.293-0.854,0.427c-0.213,0.106-0.453,0.213-0.691,0.293c-0.24,0.08-0.48,0.134-0.721,0.16
		s-0.48,0.026-0.693-0.054s-0.373-0.213-0.506-0.426c-0.133-0.214-0.16-0.427-0.107-0.667c0.027-0.214,0.135-0.427,0.268-0.612
		c0.133-0.188,0.32-0.374,0.533-0.533c0.186-0.16,0.4-0.294,0.586-0.428c0.533-0.346,1.066-0.666,1.572-0.959
		c0.268-0.133,0.533-0.293,0.773-0.427s0.506-0.293,0.801-0.427c0.213-0.106,0.453-0.213,0.691-0.293
		c0.24-0.08,0.508-0.133,0.748-0.16c0.238-0.026,0.453,0,0.666,0.08c0.186,0.08,0.373,0.213,0.506,0.427
		S309.867,509.311,309.84,509.523L309.84,509.523z"/>
	<path fill="#FFFFFF" d="M309.84,514.533c-0.213-0.134-0.426-0.24-0.639-0.32c-0.24-0.08-0.453-0.133-0.666-0.16
		c-0.215-0.026-0.4-0.026-0.533-0.053c-0.748-0.08-1.414-0.054-2,0.08c-0.613,0.133-1.119,0.319-1.52,0.56
		c-0.4,0.239-0.854,0.587-1.307,1.04s-0.826,1.012-1.066,1.679c-0.053,0.134-0.105,0.294-0.16,0.479
		c-0.053,0.188-0.08,0.4-0.105,0.613c-0.027,0.24-0.027,0.453,0,0.693c0.025,0.24,0.105,0.48,0.24,0.72
		c0.133,0.214,0.293,0.399,0.533,0.533c0.213,0.134,0.453,0.267,0.691,0.347c0.24,0.08,0.48,0.16,0.721,0.187
		s0.426,0.054,0.613,0.079c1.199,0.107,2.238-0.053,3.119-0.506c0.4-0.187,0.854-0.56,1.359-1.066
		c0.506-0.506,0.879-1.119,1.119-1.785c0.053-0.134,0.107-0.294,0.16-0.508c0.053-0.213,0.107-0.453,0.133-0.692
		c0.027-0.239,0.027-0.479,0-0.72c-0.025-0.24-0.105-0.453-0.213-0.64C310.188,514.853,310.027,514.666,309.84,514.533
		L309.84,514.533z M309.84,516.186c-0.053,0.24-0.16,0.453-0.293,0.64s-0.32,0.374-0.506,0.533c-0.213,0.16-0.4,0.294-0.586,0.427
		c-0.293,0.187-0.533,0.373-0.773,0.506c-0.24,0.134-0.506,0.293-0.773,0.427c-0.266,0.134-0.533,0.294-0.773,0.427
		c-0.266,0.133-0.559,0.293-0.854,0.426c-0.213,0.107-0.453,0.214-0.691,0.294c-0.24,0.08-0.48,0.134-0.721,0.159
		c-0.24,0.027-0.48,0.027-0.693-0.053s-0.373-0.213-0.506-0.426c-0.133-0.214-0.16-0.428-0.107-0.667
		c0.027-0.214,0.135-0.427,0.268-0.613s0.32-0.373,0.533-0.533c0.186-0.159,0.4-0.293,0.586-0.427
		c0.533-0.346,1.066-0.666,1.572-0.959c0.268-0.133,0.533-0.293,0.773-0.427s0.506-0.294,0.801-0.427
		c0.213-0.106,0.453-0.213,0.691-0.293c0.24-0.08,0.508-0.133,0.748-0.16c0.238-0.026,0.453,0,0.666,0.08
		c0.186,0.08,0.373,0.213,0.506,0.427S309.867,515.973,309.84,516.186L309.84,516.186z"/>
	<path fill="#FFFFFF" d="M309.84,521.195c-0.213-0.133-0.426-0.239-0.639-0.319c-0.24-0.08-0.453-0.134-0.666-0.16
		c-0.215-0.026-0.4-0.026-0.533-0.054c-0.748-0.08-1.414-0.053-2,0.08c-0.613,0.134-1.119,0.32-1.52,0.561s-0.854,0.586-1.307,1.039
		s-0.826,1.014-1.066,1.68c-0.053,0.133-0.105,0.293-0.16,0.48c-0.053,0.186-0.08,0.399-0.105,0.612
		c-0.027,0.24-0.027,0.453,0,0.693c0.025,0.239,0.105,0.479,0.24,0.72c0.133,0.213,0.293,0.4,0.533,0.533
		c0.213,0.133,0.453,0.267,0.691,0.346c0.24,0.08,0.48,0.16,0.721,0.188c0.24,0.026,0.426,0.053,0.613,0.08
		c1.199,0.106,2.238-0.054,3.119-0.507c0.4-0.187,0.854-0.56,1.359-1.066s0.879-1.12,1.119-1.786
		c0.053-0.133,0.107-0.293,0.16-0.506s0.107-0.453,0.133-0.693c0.027-0.24,0.027-0.48,0-0.72c-0.025-0.24-0.105-0.453-0.213-0.64
		C310.188,521.516,310.027,521.329,309.84,521.195L309.84,521.195z M309.84,522.849c-0.053,0.239-0.16,0.453-0.293,0.64
		s-0.32,0.373-0.506,0.533c-0.213,0.16-0.4,0.293-0.586,0.426c-0.293,0.188-0.533,0.374-0.773,0.508
		c-0.24,0.133-0.506,0.293-0.773,0.426c-0.266,0.133-0.533,0.293-0.773,0.427c-0.266,0.134-0.559,0.293-0.854,0.427
		c-0.213,0.106-0.453,0.213-0.691,0.293c-0.24,0.08-0.48,0.133-0.721,0.16c-0.24,0.026-0.48,0.026-0.693-0.054
		s-0.373-0.214-0.506-0.427s-0.16-0.426-0.107-0.666c0.027-0.213,0.135-0.427,0.268-0.613s0.32-0.373,0.533-0.533
		c0.186-0.16,0.4-0.293,0.586-0.426c0.533-0.348,1.066-0.667,1.572-0.961c0.268-0.133,0.533-0.293,0.773-0.426
		s0.506-0.293,0.801-0.427c0.213-0.106,0.453-0.213,0.691-0.293c0.24-0.08,0.508-0.134,0.748-0.16c0.238-0.026,0.453,0,0.666,0.08
		c0.186,0.08,0.373,0.214,0.506,0.427S309.867,522.635,309.84,522.849L309.84,522.849z"/>
</g>
<g>
	<line fill="none" stroke="#FFFFFF" stroke-width="0.499" x1="29.453" y1="504.221" x2="179.453" y2="504.221"/>
	<line fill="none" stroke="#FFFFFF" stroke-width="0.499" x1="29.453" y1="510.883" x2="179.453" y2="510.883"/>
	<line fill="none" stroke="#FFFFFF" stroke-width="0.499" x1="29.453" y1="517.545" x2="179.453" y2="517.545"/>
	<line fill="none" stroke="#FFFFFF" stroke-width="0.499" x1="29.453" y1="524.207" x2="179.453" y2="524.207"/>
	<line fill="none" stroke="#FFFFFF" stroke-width="0.499" x1="29.453" y1="530.869" x2="179.453" y2="530.869"/>
</g>
<g>
	<path fill="#FFFFFF" d="M99.396,512.402c0.347,0.453,0.8,0.826,1.36,1.119c0.56,0.294,1.173,0.533,1.865,0.667
		c0.693,0.134,1.413,0.214,2.159,0.214c0.747,0,1.439-0.107,2.106-0.293c0.64-0.188,1.199-0.428,1.679-0.747
		c0.454-0.319,0.827-0.692,1.094-1.12c0.239-0.399,0.347-0.853,0.319-1.306c-0.053-0.613-0.267-1.173-0.613-1.626
		c-0.346-0.453-0.8-0.826-1.332-1.119c-0.561-0.294-1.173-0.533-1.866-0.667s-1.413-0.214-2.159-0.214
		c-0.747,0-1.439,0.107-2.079,0.294c-0.667,0.187-1.227,0.453-1.706,0.772c-0.48,0.32-0.854,0.693-1.094,1.094
		c-0.267,0.426-0.373,0.879-0.346,1.332C98.836,511.416,99.05,511.949,99.396,512.402L99.396,512.402z M102.168,509.523
		c0.08-0.266,0.187-0.506,0.347-0.72c0.16-0.213,0.373-0.399,0.613-0.532c0.24-0.134,0.533-0.214,0.853-0.214
		c0.454,0,0.827,0.08,1.146,0.267c0.294,0.187,0.56,0.453,0.773,0.773c0.213,0.319,0.373,0.692,0.506,1.119
		c0.134,0.426,0.214,0.879,0.294,1.359c0.026,0.24,0.026,0.506-0.054,0.746c-0.08,0.268-0.213,0.507-0.399,0.721
		c-0.187,0.213-0.4,0.399-0.64,0.533c-0.267,0.133-0.561,0.213-0.88,0.213c-0.453,0-0.8-0.08-1.093-0.268
		c-0.294-0.186-0.561-0.426-0.747-0.746c-0.213-0.319-0.373-0.693-0.479-1.119c-0.134-0.426-0.213-0.88-0.293-1.359
		C102.088,510.057,102.088,509.79,102.168,509.523L102.168,509.523z"/>
	<path fill="#FFFFFF" d="M99.396,519.064c0.347,0.453,0.8,0.826,1.36,1.119c0.56,0.294,1.173,0.533,1.865,0.667
		c0.693,0.134,1.413,0.214,2.159,0.214c0.747,0,1.439-0.107,2.106-0.294c0.64-0.187,1.199-0.427,1.679-0.746
		c0.454-0.319,0.827-0.693,1.094-1.12c0.239-0.399,0.347-0.853,0.319-1.306c-0.053-0.613-0.267-1.173-0.613-1.626
		c-0.346-0.453-0.8-0.826-1.332-1.119c-0.561-0.294-1.173-0.533-1.866-0.667s-1.413-0.214-2.159-0.214
		c-0.747,0-1.439,0.107-2.079,0.293c-0.667,0.188-1.227,0.454-1.706,0.773c-0.48,0.32-0.854,0.693-1.094,1.094
		c-0.267,0.426-0.373,0.879-0.346,1.332C98.836,518.078,99.05,518.611,99.396,519.064L99.396,519.064z M102.168,516.186
		c0.08-0.267,0.187-0.506,0.347-0.72s0.373-0.399,0.613-0.533s0.533-0.213,0.853-0.213c0.454,0,0.827,0.079,1.146,0.267
		c0.294,0.187,0.56,0.453,0.773,0.773c0.213,0.319,0.373,0.692,0.506,1.119c0.134,0.426,0.214,0.879,0.294,1.359
		c0.026,0.24,0.026,0.506-0.054,0.746c-0.08,0.268-0.213,0.507-0.399,0.721c-0.187,0.213-0.4,0.398-0.64,0.533
		c-0.267,0.133-0.561,0.213-0.88,0.213c-0.453,0-0.8-0.08-1.093-0.268c-0.294-0.186-0.561-0.426-0.747-0.746
		c-0.213-0.32-0.373-0.693-0.479-1.119c-0.134-0.427-0.213-0.88-0.293-1.359C102.088,516.719,102.088,516.452,102.168,516.186
		L102.168,516.186z"/>
	<path fill="#FFFFFF" d="M99.396,525.728c0.347,0.453,0.8,0.827,1.36,1.12c0.56,0.293,1.173,0.533,1.865,0.666
		c0.693,0.133,1.413,0.213,2.159,0.213c0.747,0,1.439-0.106,2.106-0.293c0.64-0.187,1.199-0.426,1.679-0.746
		c0.454-0.32,0.827-0.693,1.094-1.119c0.239-0.4,0.347-0.854,0.319-1.307c-0.053-0.613-0.267-1.174-0.613-1.627
		c-0.346-0.453-0.8-0.826-1.332-1.119c-0.561-0.293-1.173-0.533-1.866-0.666s-1.413-0.213-2.159-0.213
		c-0.747,0-1.439,0.105-2.079,0.293c-0.667,0.186-1.227,0.453-1.706,0.773c-0.48,0.319-0.854,0.692-1.094,1.092
		c-0.267,0.427-0.373,0.881-0.346,1.334C98.836,524.741,99.05,525.274,99.396,525.728L99.396,525.728z M102.168,522.849
		c0.08-0.267,0.187-0.507,0.347-0.72s0.373-0.4,0.613-0.533s0.533-0.213,0.853-0.213c0.454,0,0.827,0.08,1.146,0.266
		c0.294,0.188,0.56,0.453,0.773,0.773c0.213,0.32,0.373,0.693,0.506,1.119c0.134,0.428,0.214,0.881,0.294,1.36
		c0.026,0.239,0.026,0.507-0.054,0.746c-0.08,0.267-0.213,0.507-0.399,0.72s-0.4,0.4-0.64,0.533
		c-0.267,0.133-0.561,0.213-0.88,0.213c-0.453,0-0.8-0.08-1.093-0.266c-0.294-0.188-0.561-0.427-0.747-0.746
		c-0.213-0.32-0.373-0.693-0.479-1.12c-0.134-0.427-0.213-0.88-0.293-1.36C102.088,523.382,102.088,523.115,102.168,522.849
		L102.168,522.849z"/>
</g>
</svg>
